G04*
G04 #@! TF.GenerationSoftware,Altium Limited,Altium Designer,19.0.4 (130)*
G04*
G04 Layer_Physical_Order=1*
G04 Layer_Color=255*
%FSLAX44Y44*%
%MOMM*%
G71*
G01*
G75*
%ADD16C,0.2540*%
%ADD19C,0.1000*%
%ADD20C,0.0127*%
%ADD21C,0.0500*%
%ADD22C,0.0254*%
G04:AMPARAMS|DCode=23|XSize=0.25mm|YSize=1.5mm|CornerRadius=0mm|HoleSize=0mm|Usage=FLASHONLY|Rotation=45.000|XOffset=0mm|YOffset=0mm|HoleType=Round|Shape=Round|*
%AMOVALD23*
21,1,1.2500,0.2500,0.0000,0.0000,135.0*
1,1,0.2500,0.4419,-0.4419*
1,1,0.2500,-0.4419,0.4419*
%
%ADD23OVALD23*%

G04:AMPARAMS|DCode=24|XSize=0.25mm|YSize=1.5mm|CornerRadius=0mm|HoleSize=0mm|Usage=FLASHONLY|Rotation=135.000|XOffset=0mm|YOffset=0mm|HoleType=Round|Shape=Round|*
%AMOVALD24*
21,1,1.2500,0.2500,0.0000,0.0000,225.0*
1,1,0.2500,0.4419,0.4419*
1,1,0.2500,-0.4419,-0.4419*
%
%ADD24OVALD24*%

%ADD25R,0.2500X0.3000*%
%ADD26R,2.1000X3.2000*%
%ADD27R,2.1000X0.9000*%
%ADD28R,2.0000X1.5000*%
%ADD29R,0.3500X1.6000*%
%ADD30R,0.3000X0.2500*%
%ADD31R,1.9000X1.3000*%
G04:AMPARAMS|DCode=32|XSize=1.524mm|YSize=1.27mm|CornerRadius=0mm|HoleSize=0mm|Usage=FLASHONLY|Rotation=270.000|XOffset=0mm|YOffset=0mm|HoleType=Round|Shape=Octagon|*
%AMOCTAGOND32*
4,1,8,-0.3175,-0.7620,0.3175,-0.7620,0.6350,-0.4445,0.6350,0.4445,0.3175,0.7620,-0.3175,0.7620,-0.6350,0.4445,-0.6350,-0.4445,-0.3175,-0.7620,0.0*
%
%ADD32OCTAGOND32*%

%ADD33R,1.2700X1.5240*%
%ADD56C,1.6000*%
%ADD57R,1.6000X1.6000*%
%ADD58R,1.7000X1.7000*%
%ADD59C,1.7000*%
%ADD60R,1.5000X2.0000*%
%ADD61R,0.8000X1.0000*%
%ADD62R,1.6000X1.6000*%
%ADD63C,1.3000*%
%ADD64R,1.7000X1.7000*%
%ADD65C,1.2700*%
%ADD66C,2.0000*%
G36*
X144780Y664210D02*
X204470D01*
X248920Y619760D01*
X374650D01*
X396240Y598170D01*
X402590Y604520D01*
X475018D01*
X475504Y603347D01*
X473415Y601258D01*
X471330Y602121D01*
X468910Y602440D01*
X466490Y602121D01*
X464235Y601187D01*
X462299Y599701D01*
X460813Y597765D01*
X459879Y595510D01*
X459560Y593090D01*
X459879Y590670D01*
X460813Y588415D01*
X462299Y586479D01*
X464235Y584993D01*
X466490Y584059D01*
X468910Y583740D01*
X471330Y584059D01*
X473585Y584993D01*
X475521Y586479D01*
X477007Y588415D01*
X477941Y590670D01*
X478260Y593090D01*
X477941Y595510D01*
X477078Y597595D01*
X480651Y601168D01*
X485040D01*
Y583820D01*
X503580D01*
Y601168D01*
X537915D01*
X545542Y593541D01*
Y585636D01*
X544272Y585205D01*
X543408Y586331D01*
X541816Y587552D01*
X539963Y588320D01*
X537974Y588582D01*
X535984Y588320D01*
X534131Y587552D01*
X532539Y586331D01*
X531317Y584739D01*
X530550Y582886D01*
X530288Y580896D01*
X530550Y578907D01*
X531317Y577054D01*
X532539Y575462D01*
X534131Y574240D01*
X535384Y573721D01*
Y399600D01*
X525981Y390197D01*
X525419Y389357D01*
X525222Y388366D01*
Y347783D01*
X523140Y345701D01*
X521986Y346179D01*
X521899Y346506D01*
X521940Y346710D01*
Y394580D01*
X529389Y402029D01*
X529951Y402869D01*
X530148Y403860D01*
Y423672D01*
X529951Y424663D01*
X529389Y425503D01*
X517445Y437448D01*
X517964Y438701D01*
X518226Y440690D01*
X517964Y442679D01*
X517196Y444533D01*
X515975Y446125D01*
X514383Y447346D01*
X512529Y448114D01*
X510540Y448376D01*
X508551Y448114D01*
X506697Y447346D01*
X505105Y446125D01*
X504494Y445328D01*
X503224Y445759D01*
Y449834D01*
X503027Y450825D01*
X502465Y451665D01*
X483666Y470465D01*
Y487172D01*
X483469Y488163D01*
X482907Y489003D01*
X454202Y517709D01*
Y567690D01*
X454005Y568681D01*
X453443Y569521D01*
X452603Y570083D01*
X452543Y570094D01*
X452541Y570110D01*
X451607Y572365D01*
X450121Y574301D01*
X448185Y575787D01*
X445930Y576721D01*
X443510Y577040D01*
X441090Y576721D01*
X438835Y575787D01*
X436898Y574301D01*
X435413Y572365D01*
X434478Y570110D01*
X434160Y567690D01*
X434478Y565270D01*
X435413Y563015D01*
X436898Y561079D01*
X438835Y559593D01*
X441090Y558659D01*
X443510Y558340D01*
X445930Y558659D01*
X447752Y559413D01*
X449022Y558771D01*
Y516636D01*
X449219Y515645D01*
X449781Y514805D01*
X465934Y498652D01*
X465408Y497382D01*
X411226D01*
X410235Y497185D01*
X409395Y496623D01*
X406093Y493321D01*
X405531Y492481D01*
X405334Y491490D01*
Y384048D01*
X405531Y383057D01*
X406093Y382217D01*
X412700Y375609D01*
Y364930D01*
X411430Y364393D01*
X410243Y365304D01*
X408389Y366072D01*
X406400Y366334D01*
X404411Y366072D01*
X402557Y365304D01*
X401370Y364393D01*
X400100Y364930D01*
Y533851D01*
X419941Y553693D01*
X420503Y554533D01*
X420700Y555524D01*
Y558729D01*
X422785Y559593D01*
X424721Y561079D01*
X426207Y563015D01*
X427141Y565270D01*
X427460Y567690D01*
X427141Y570110D01*
X426207Y572365D01*
X424721Y574301D01*
X422785Y575787D01*
X422218Y576022D01*
X422470Y577292D01*
X433578D01*
X434569Y577489D01*
X435409Y578051D01*
X439731Y582372D01*
X443510D01*
X444501Y582569D01*
X445341Y583131D01*
X445902Y583971D01*
X445920Y584057D01*
X445930Y584059D01*
X448185Y584993D01*
X450121Y586479D01*
X451607Y588415D01*
X452541Y590670D01*
X452860Y593090D01*
X452541Y595510D01*
X451607Y597765D01*
X450121Y599701D01*
X448185Y601187D01*
X445930Y602121D01*
X443510Y602440D01*
X441090Y602121D01*
X438835Y601187D01*
X436898Y599701D01*
X435413Y597765D01*
X434478Y595510D01*
X434160Y593090D01*
X434478Y590670D01*
X435413Y588415D01*
X436731Y586697D01*
X432505Y582472D01*
X392430D01*
X391439Y582275D01*
X390599Y581713D01*
X386789Y577903D01*
X386227Y577063D01*
X386030Y576072D01*
Y470397D01*
X384760Y469966D01*
X384149Y470763D01*
X382557Y471984D01*
X380703Y472752D01*
X378714Y473014D01*
X376725Y472752D01*
X374871Y471984D01*
X373279Y470763D01*
X372058Y469171D01*
X371290Y467317D01*
X371028Y465328D01*
X371290Y463339D01*
X372058Y461485D01*
X373279Y459893D01*
X374871Y458672D01*
X376124Y458153D01*
Y312483D01*
X374871Y311964D01*
X373279Y310743D01*
X372058Y309151D01*
X371290Y307297D01*
X371028Y305308D01*
X371290Y303319D01*
X372058Y301465D01*
X373279Y299873D01*
X374871Y298652D01*
X376725Y297884D01*
X378714Y297622D01*
X380703Y297884D01*
X382557Y298652D01*
X384149Y299873D01*
X385370Y301465D01*
X386138Y303319D01*
X386400Y305308D01*
X386138Y307297D01*
X385370Y309151D01*
X384149Y310743D01*
X382557Y311964D01*
X381304Y312483D01*
Y332497D01*
X382574Y332928D01*
X383185Y332131D01*
X384777Y330910D01*
X386631Y330142D01*
X388620Y329880D01*
X390609Y330142D01*
X392463Y330910D01*
X393650Y331821D01*
X394920Y331284D01*
Y303085D01*
X393667Y302566D01*
X392075Y301345D01*
X390854Y299753D01*
X390086Y297899D01*
X389824Y295910D01*
X390086Y293921D01*
X390854Y292067D01*
X391765Y290880D01*
X391228Y289610D01*
X363023D01*
X362000Y290633D01*
Y489712D01*
X361803Y490703D01*
X361241Y491543D01*
X327793Y524991D01*
X326953Y525553D01*
X325962Y525750D01*
X317500D01*
X317149Y525680D01*
X314730D01*
Y520750D01*
X290830D01*
X289839Y520553D01*
X288999Y519991D01*
X285189Y516181D01*
X284627Y515341D01*
X284430Y514350D01*
Y496570D01*
X283210D01*
X279400Y492760D01*
Y482600D01*
X283210Y478790D01*
X290830D01*
X294640Y482600D01*
Y492760D01*
X290830Y496570D01*
X289610D01*
Y513277D01*
X291903Y515570D01*
X317500D01*
X317851Y515640D01*
X320270D01*
Y520570D01*
X324889D01*
X356820Y488639D01*
Y381961D01*
X355550Y381878D01*
X355404Y382989D01*
X354636Y384843D01*
X353415Y386435D01*
X351823Y387656D01*
X349969Y388424D01*
X347980Y388686D01*
X345991Y388424D01*
X344738Y387905D01*
X289610Y443033D01*
Y453390D01*
X294640D01*
Y471170D01*
X279400D01*
Y453390D01*
X284430D01*
Y441960D01*
X284627Y440969D01*
X285189Y440129D01*
X341075Y384242D01*
X340556Y382989D01*
X340294Y381000D01*
X340556Y379011D01*
X341324Y377157D01*
X342545Y375565D01*
X344137Y374344D01*
X345991Y373576D01*
X347980Y373314D01*
X349969Y373576D01*
X351823Y374344D01*
X353415Y375565D01*
X354636Y377157D01*
X355404Y379011D01*
X355550Y380122D01*
X356820Y380039D01*
Y289560D01*
X357017Y288569D01*
X357579Y287729D01*
X360119Y285189D01*
X360959Y284627D01*
X361950Y284430D01*
X383700D01*
X384176Y283253D01*
X358686Y258612D01*
X357343Y259081D01*
X357182Y260307D01*
X356414Y262161D01*
X355193Y263753D01*
X353601Y264974D01*
X351747Y265742D01*
X349758Y266004D01*
X347769Y265742D01*
X345915Y264974D01*
X344323Y263753D01*
X343102Y262161D01*
X342334Y260307D01*
X342072Y258318D01*
X342334Y256329D01*
X343102Y254475D01*
X343689Y253710D01*
X343063Y252440D01*
X326540D01*
Y236900D01*
X348080D01*
Y242087D01*
X349039Y242277D01*
X349879Y242839D01*
X351574Y244534D01*
X352893Y245808D01*
X354125Y245233D01*
Y237899D01*
X351733Y235508D01*
X310748D01*
X310666Y235630D01*
X311345Y236900D01*
X316080D01*
Y252440D01*
X294540D01*
Y236900D01*
X302718D01*
Y224282D01*
X302915Y223291D01*
X303477Y222451D01*
X310672Y215256D01*
X311512Y214695D01*
X312503Y214497D01*
X381364D01*
X381736Y213227D01*
X380694Y211869D01*
X379926Y210015D01*
X379664Y208026D01*
X379926Y206037D01*
X380694Y204183D01*
X381410Y203250D01*
X380784Y201980D01*
X286823D01*
X219760Y269043D01*
Y483990D01*
X228440D01*
Y501530D01*
X205900D01*
Y483990D01*
X214580D01*
Y267970D01*
X214777Y266979D01*
X215339Y266139D01*
X283919Y197559D01*
X284759Y196997D01*
X285750Y196800D01*
X294540D01*
Y181900D01*
X316080D01*
Y196800D01*
X326540D01*
Y181900D01*
X348080D01*
Y196800D01*
X387148D01*
X395000Y195570D01*
Y194310D01*
X395070Y193959D01*
Y191540D01*
X400000D01*
Y155448D01*
X400197Y154457D01*
X400759Y153617D01*
X438552Y115823D01*
X438066Y114650D01*
X431490D01*
Y105206D01*
X427990D01*
X426999Y105009D01*
X426159Y104447D01*
X422929Y101217D01*
X422368Y100377D01*
X422170Y99386D01*
Y92550D01*
X415990D01*
Y70010D01*
X433530D01*
Y92550D01*
X427350D01*
Y98313D01*
X429063Y100026D01*
X434170D01*
Y97790D01*
X434367Y96799D01*
X434929Y95959D01*
X438485Y92403D01*
X439325Y91841D01*
X440316Y91644D01*
X471170D01*
X472161Y91841D01*
X473001Y92403D01*
X475841Y95243D01*
X476403Y96083D01*
X476600Y97074D01*
Y101010D01*
X477030D01*
Y105790D01*
X479990D01*
Y102110D01*
X482670D01*
Y91574D01*
X482867Y90583D01*
X483429Y89743D01*
X487119Y86053D01*
X487959Y85491D01*
X488490Y85386D01*
Y70010D01*
X506030D01*
Y78690D01*
X524510D01*
X525501Y78887D01*
X526341Y79449D01*
X527982Y81090D01*
X542660D01*
Y77910D01*
X566200D01*
Y89450D01*
X542660D01*
Y86270D01*
X526910D01*
X525919Y86072D01*
X525079Y85511D01*
X523437Y83870D01*
X506030D01*
Y92550D01*
X488490D01*
X487850Y93555D01*
Y102110D01*
X490530D01*
Y113866D01*
X491800Y114392D01*
X501343Y104849D01*
X502183Y104287D01*
X503174Y104090D01*
X542660D01*
Y100910D01*
X566200D01*
Y112450D01*
X542660D01*
Y109270D01*
X504247D01*
X485720Y127797D01*
X485977Y129335D01*
X488241Y131599D01*
X488803Y132439D01*
X489000Y133430D01*
Y169459D01*
X488803Y170450D01*
X488241Y171290D01*
X462000Y197531D01*
X462599Y198729D01*
X475883Y196826D01*
X476084Y196837D01*
X476282Y196800D01*
X476584Y196864D01*
X476892Y196881D01*
X477073Y196968D01*
X477270Y197010D01*
X477525Y197184D01*
X477803Y197318D01*
X477938Y197467D01*
X478103Y197581D01*
X478272Y197840D01*
X478478Y198070D01*
X478545Y198260D01*
X478655Y198428D01*
X480471Y202970D01*
X486310D01*
X487274Y202230D01*
X496520Y192983D01*
Y132220D01*
X496717Y131229D01*
X497279Y130389D01*
X499819Y127849D01*
X500659Y127288D01*
X501650Y127090D01*
X542660D01*
Y123910D01*
X566200D01*
Y135450D01*
X542660D01*
Y132270D01*
X502723D01*
X501700Y133293D01*
Y193019D01*
X502970Y193144D01*
X503028Y192850D01*
X503590Y192010D01*
X507191Y188408D01*
X506672Y187155D01*
X506410Y185166D01*
X506672Y183177D01*
X507440Y181323D01*
X508661Y179731D01*
X510253Y178510D01*
X512107Y177742D01*
X514096Y177480D01*
X516085Y177742D01*
X517939Y178510D01*
X519531Y179731D01*
X520752Y181323D01*
X521520Y183177D01*
X521782Y185166D01*
X521520Y187155D01*
X520752Y189009D01*
X519531Y190601D01*
X517939Y191822D01*
X516085Y192590D01*
X514096Y192852D01*
X512107Y192590D01*
X510854Y192071D01*
X508011Y194914D01*
Y207011D01*
X507941Y207362D01*
Y209781D01*
X506536D01*
X506069Y211051D01*
X507036Y212311D01*
X507804Y214165D01*
X508066Y216154D01*
X507804Y218143D01*
X507036Y219997D01*
X505815Y221589D01*
X504223Y222810D01*
X503010Y223312D01*
Y241891D01*
X506259Y245140D01*
X518160D01*
X518340Y245176D01*
X519610Y244723D01*
Y227767D01*
X518661Y226935D01*
X516672Y226673D01*
X514818Y225905D01*
X513227Y224684D01*
X512005Y223092D01*
X511237Y221238D01*
X510976Y219249D01*
X511237Y217260D01*
X512005Y215406D01*
X513227Y213815D01*
X514818Y212593D01*
X516672Y211825D01*
X518661Y211563D01*
X520651Y211825D01*
X522504Y212593D01*
X524096Y213815D01*
X525222Y215282D01*
X525640Y215274D01*
X526492Y214924D01*
Y175323D01*
X525239Y174804D01*
X523647Y173583D01*
X522426Y171991D01*
X521658Y170137D01*
X521396Y168148D01*
X521658Y166159D01*
X522426Y164305D01*
X523647Y162713D01*
X525239Y161492D01*
X527093Y160724D01*
X529082Y160462D01*
X531071Y160724D01*
X532925Y161492D01*
X534517Y162713D01*
X535738Y164305D01*
X536506Y166159D01*
X536768Y168148D01*
X536506Y170137D01*
X535738Y171991D01*
X534517Y173583D01*
X532925Y174804D01*
X531672Y175323D01*
Y249117D01*
X533199Y250645D01*
X533761Y251485D01*
X533958Y252476D01*
Y300736D01*
X533761Y301727D01*
X533199Y302567D01*
X525827Y309940D01*
X526346Y311193D01*
X526608Y313182D01*
X526346Y315171D01*
X525578Y317025D01*
X524667Y318212D01*
X525204Y319482D01*
X529297D01*
X530134Y318527D01*
X530032Y317754D01*
X530294Y315765D01*
X531062Y313911D01*
X532283Y312319D01*
X533875Y311098D01*
X535729Y310330D01*
X537718Y310068D01*
X539707Y310330D01*
X541561Y311098D01*
X543153Y312319D01*
X544374Y313911D01*
X545142Y315765D01*
X545404Y317754D01*
X545142Y319743D01*
X544374Y321597D01*
X543153Y323189D01*
X542590Y323620D01*
X543022Y324890D01*
X546080D01*
Y325070D01*
X548837D01*
X565859Y308049D01*
X566699Y307487D01*
X567690Y307290D01*
X598678D01*
X599669Y307487D01*
X600509Y308049D01*
X687123Y394663D01*
X687685Y395503D01*
X687882Y396494D01*
Y519105D01*
X689084Y519513D01*
X689349Y519169D01*
X691285Y517683D01*
X693540Y516749D01*
X695960Y516430D01*
X698380Y516749D01*
X700635Y517683D01*
X702571Y519169D01*
X704057Y521105D01*
X704991Y523360D01*
X705310Y525780D01*
X704991Y528200D01*
X704057Y530455D01*
X702571Y532391D01*
X700635Y533877D01*
X698380Y534811D01*
X695960Y535130D01*
X693540Y534811D01*
X691285Y533877D01*
X689349Y532391D01*
X689084Y532047D01*
X687882Y532455D01*
Y539439D01*
X691455Y543012D01*
X693540Y542149D01*
X695960Y541830D01*
X698380Y542149D01*
X700635Y543083D01*
X702571Y544569D01*
X704057Y546505D01*
X704991Y548760D01*
X705310Y551180D01*
X704991Y553600D01*
X704057Y555855D01*
X702571Y557791D01*
X700635Y559277D01*
X698380Y560211D01*
X695960Y560530D01*
X693540Y560211D01*
X691285Y559277D01*
X689349Y557791D01*
X687863Y555855D01*
X686929Y553600D01*
X686610Y551180D01*
X686929Y548760D01*
X687792Y546675D01*
X683461Y542343D01*
X682899Y541503D01*
X682702Y540512D01*
Y408364D01*
X681432Y407827D01*
X680245Y408738D01*
X678391Y409506D01*
X676402Y409768D01*
X674413Y409506D01*
X673150Y410357D01*
Y415290D01*
Y516819D01*
X675235Y517683D01*
X677171Y519169D01*
X678657Y521105D01*
X679591Y523360D01*
X679910Y525780D01*
X679591Y528200D01*
X678657Y530455D01*
X677171Y532391D01*
X675235Y533877D01*
X672980Y534811D01*
X670560Y535130D01*
X668140Y534811D01*
X665885Y533877D01*
X663949Y532391D01*
X662463Y530455D01*
X661529Y528200D01*
X661210Y525780D01*
X661529Y523360D01*
X662463Y521105D01*
X663949Y519169D01*
X665885Y517683D01*
X667970Y516819D01*
Y416363D01*
X665677Y414070D01*
X594590D01*
Y419000D01*
X594410D01*
Y440690D01*
X594213Y441681D01*
X593651Y442521D01*
X593140Y443033D01*
Y455930D01*
X594360D01*
X598170Y459740D01*
Y469900D01*
X594360Y473710D01*
X586740D01*
X582930Y469900D01*
Y459740D01*
X586740Y455930D01*
X587960D01*
Y441960D01*
X588157Y440969D01*
X588719Y440129D01*
X589230Y439617D01*
Y419000D01*
X589050D01*
Y408960D01*
X589230D01*
Y332543D01*
X586938Y330251D01*
X577791D01*
Y330431D01*
X572860D01*
Y334207D01*
X574521Y335868D01*
X575083Y336708D01*
X575280Y337700D01*
Y345440D01*
X575210Y345791D01*
Y348210D01*
X574394D01*
X573768Y349480D01*
X574346Y350233D01*
X575114Y352087D01*
X575376Y354076D01*
X575114Y356065D01*
X574346Y357919D01*
X573125Y359511D01*
X571533Y360732D01*
X569679Y361500D01*
X567690Y361762D01*
X565701Y361500D01*
X563847Y360732D01*
X562660Y359821D01*
X561390Y360358D01*
Y456889D01*
X580193Y475692D01*
X597662D01*
X598653Y475889D01*
X599493Y476451D01*
X666055Y543012D01*
X668140Y542149D01*
X670560Y541830D01*
X672980Y542149D01*
X675235Y543083D01*
X677171Y544569D01*
X678657Y546505D01*
X679591Y548760D01*
X679910Y551180D01*
X679591Y553600D01*
X678657Y555855D01*
X677171Y557791D01*
X675235Y559277D01*
X672980Y560211D01*
X670560Y560530D01*
X668140Y560211D01*
X665885Y559277D01*
X663949Y557791D01*
X662463Y555855D01*
X661529Y553600D01*
X661210Y551180D01*
X661529Y548760D01*
X662392Y546675D01*
X599343Y483626D01*
X598170Y484112D01*
Y499110D01*
X593140D01*
Y555435D01*
X594393Y555954D01*
X595985Y557175D01*
X597206Y558767D01*
X597974Y560621D01*
X598236Y562610D01*
X597974Y564599D01*
X597206Y566453D01*
X595985Y568045D01*
X594393Y569266D01*
X593140Y569785D01*
Y572967D01*
X594163Y573990D01*
X661290D01*
Y567310D01*
X679830D01*
Y585850D01*
X661290D01*
Y579170D01*
X593090D01*
X592099Y578973D01*
X591259Y578411D01*
X588719Y575871D01*
X588157Y575031D01*
X587960Y574040D01*
Y569785D01*
X586707Y569266D01*
X585115Y568045D01*
X583894Y566453D01*
X583126Y564599D01*
X582864Y562610D01*
X583126Y560621D01*
X583894Y558767D01*
X585115Y557175D01*
X586707Y555954D01*
X587960Y555435D01*
Y499110D01*
X582930D01*
Y492810D01*
X549910D01*
X548919Y492613D01*
X548079Y492051D01*
X546561Y490534D01*
X545388Y491020D01*
Y493465D01*
X549963Y498041D01*
X550525Y498881D01*
X550722Y499872D01*
Y594614D01*
X550525Y595605D01*
X549963Y596445D01*
X543062Y603347D01*
X543548Y604520D01*
X590550D01*
X614680Y628650D01*
X688340D01*
X706120Y646430D01*
X731520D01*
X767080Y681990D01*
X797560D01*
Y661764D01*
X796290Y661512D01*
X795974Y662274D01*
X794168Y664628D01*
X791814Y666434D01*
X789072Y667570D01*
X786130Y667957D01*
X783188Y667570D01*
X780446Y666434D01*
X778092Y664628D01*
X776286Y662274D01*
X775150Y659532D01*
X774763Y656590D01*
X775150Y653648D01*
X776286Y650906D01*
X778092Y648552D01*
X780446Y646746D01*
X783188Y645610D01*
X786130Y645223D01*
X789072Y645610D01*
X791814Y646746D01*
X794168Y648552D01*
X795974Y650906D01*
X797110Y653648D01*
X797497Y656590D01*
X797182Y658981D01*
X798385Y659575D01*
X824230Y633730D01*
Y581660D01*
X869950Y535940D01*
Y444500D01*
X904240Y410210D01*
Y304800D01*
X920750Y288290D01*
Y214630D01*
X939800Y195580D01*
Y67310D01*
X918210Y45720D01*
Y26670D01*
X890270Y-1270D01*
X870830D01*
X853440Y-18660D01*
Y-19050D01*
X834390D01*
X833120Y-17780D01*
X760730D01*
X732790Y10160D01*
X717550D01*
X689610Y38100D01*
X687070D01*
Y52070D01*
X679450Y59690D01*
X675640Y55880D01*
X237490D01*
X226060Y67310D01*
X218440Y59690D01*
Y55880D01*
X185420Y22860D01*
X163830D01*
X128270Y-12700D01*
X80010D01*
X76200Y-16510D01*
X67310Y-7620D01*
X26670D01*
X13970Y5080D01*
X10160D01*
X-19050Y34290D01*
X-22860D01*
Y54610D01*
X-35560Y67310D01*
Y127000D01*
X-34290Y128270D01*
Y182880D01*
X-30480Y186690D01*
Y248920D01*
X-25400Y254000D01*
Y280670D01*
X-16510Y289560D01*
Y344170D01*
X0Y360680D01*
Y402590D01*
X10160Y412750D01*
Y450850D01*
X34290Y474980D01*
Y518160D01*
X49530Y533400D01*
Y566420D01*
X57150Y574040D01*
Y595630D01*
X71120Y609600D01*
Y627380D01*
X87630Y643890D01*
Y661670D01*
X107950Y681990D01*
Y699381D01*
X109123Y699867D01*
X144780Y664210D01*
D02*
G37*
G36*
X545542Y576157D02*
Y500945D01*
X541833Y497236D01*
X540563Y497762D01*
Y573721D01*
X541816Y574240D01*
X543408Y575462D01*
X544272Y576588D01*
X545542Y576157D01*
D02*
G37*
G36*
X442586Y490932D02*
X441950Y490849D01*
X439573Y489864D01*
X437532Y488298D01*
X435966Y486257D01*
X434981Y483881D01*
X434646Y481330D01*
X434981Y478779D01*
X435966Y476403D01*
X437532Y474362D01*
X439573Y472796D01*
X441910Y471828D01*
Y422842D01*
X440640Y422305D01*
X439453Y423216D01*
X437599Y423984D01*
X435610Y424246D01*
X433621Y423984D01*
X431767Y423216D01*
X430175Y421995D01*
X428954Y420403D01*
X428186Y418549D01*
X427924Y416560D01*
X428186Y414571D01*
X428954Y412717D01*
X430175Y411125D01*
X431767Y409904D01*
X433020Y409385D01*
Y372692D01*
X431750Y372166D01*
X421690Y382226D01*
Y471560D01*
X428870D01*
Y491100D01*
X428870D01*
X429275Y492202D01*
X442502D01*
X442586Y490932D01*
D02*
G37*
G36*
X498044Y448761D02*
Y407563D01*
X496781Y406712D01*
X494792Y406974D01*
X492803Y406712D01*
X490949Y405944D01*
X490393Y405517D01*
X489118Y406140D01*
X489114Y406610D01*
X489707Y406856D01*
X491299Y408077D01*
X492520Y409669D01*
X493288Y411523D01*
X493550Y413512D01*
X493288Y415501D01*
X492520Y417355D01*
X491299Y418947D01*
X489707Y420168D01*
X487854Y420936D01*
X485864Y421198D01*
X483875Y420936D01*
X482021Y420168D01*
X480430Y418947D01*
X480110Y418530D01*
X478840Y418961D01*
Y466170D01*
X480110Y466696D01*
X498044Y448761D01*
D02*
G37*
G36*
X505105Y435255D02*
X506697Y434034D01*
X508551Y433266D01*
X510540Y433004D01*
X512529Y433266D01*
X513782Y433785D01*
X524968Y422599D01*
Y404933D01*
X518210Y398174D01*
X516940Y398700D01*
Y401375D01*
X518193Y401894D01*
X519785Y403116D01*
X521006Y404707D01*
X521774Y406561D01*
X522036Y408550D01*
X521774Y410540D01*
X521006Y412393D01*
X519785Y413985D01*
X518193Y415206D01*
X516339Y415974D01*
X514350Y416236D01*
X512361Y415974D01*
X510507Y415206D01*
X508915Y413985D01*
X507694Y412393D01*
X506926Y410540D01*
X506664Y408550D01*
X506926Y406561D01*
X507694Y404707D01*
X506659Y404038D01*
X503224Y407473D01*
Y435621D01*
X504494Y436052D01*
X505105Y435255D01*
D02*
G37*
G36*
X465916Y491447D02*
X465626Y490135D01*
X464973Y489864D01*
X462932Y488298D01*
X461366Y486257D01*
X460382Y483881D01*
X460046Y481330D01*
X460382Y478779D01*
X461366Y476403D01*
X462932Y474362D01*
X464973Y472796D01*
X467350Y471811D01*
X469900Y471476D01*
X472390Y471804D01*
X472715Y471801D01*
X473660Y471170D01*
Y398272D01*
X473857Y397281D01*
X474419Y396441D01*
X476200Y394659D01*
Y381169D01*
X474930Y380737D01*
X474339Y381508D01*
X472747Y382729D01*
X470894Y383497D01*
X468904Y383759D01*
X466915Y383497D01*
X465061Y382729D01*
X463600Y381608D01*
X462447Y381855D01*
X462330Y381895D01*
Y392938D01*
X462133Y393929D01*
X461571Y394769D01*
X447090Y409251D01*
Y471828D01*
X449427Y472796D01*
X451468Y474362D01*
X453034Y476403D01*
X454019Y478779D01*
X454354Y481330D01*
X454019Y483881D01*
X453034Y486257D01*
X451468Y488298D01*
X449427Y489864D01*
X447051Y490849D01*
X446414Y490932D01*
X446498Y492202D01*
X465254D01*
X465916Y491447D01*
D02*
G37*
G36*
X416510Y381153D02*
X416568Y380862D01*
X415398Y380237D01*
X410514Y385121D01*
Y471560D01*
X416510D01*
Y381153D01*
D02*
G37*
G36*
X582930Y481330D02*
X581850Y480872D01*
X579120D01*
X578129Y480675D01*
X577289Y480113D01*
X556969Y459793D01*
X556407Y458953D01*
X556210Y457962D01*
Y367216D01*
X554940Y366679D01*
X553753Y367590D01*
X551899Y368358D01*
X549910Y368620D01*
X547921Y368358D01*
X546067Y367590D01*
X544475Y366369D01*
X543254Y364777D01*
X542735Y363524D01*
X540315D01*
X538276Y365563D01*
Y383187D01*
X539546Y383440D01*
X540044Y382237D01*
X541265Y380645D01*
X542857Y379424D01*
X544711Y378656D01*
X546700Y378394D01*
X548689Y378656D01*
X550543Y379424D01*
X552135Y380645D01*
X553356Y382237D01*
X554124Y384091D01*
X554386Y386080D01*
X554124Y388069D01*
X553356Y389923D01*
X552135Y391515D01*
X550543Y392736D01*
X549290Y393255D01*
Y485937D01*
X550983Y487630D01*
X582930D01*
Y481330D01*
D02*
G37*
G36*
X507696Y395675D02*
Y378646D01*
X506426Y378109D01*
X505239Y379020D01*
X503385Y379788D01*
X501396Y380050D01*
X499407Y379788D01*
X497553Y379020D01*
X496366Y378109D01*
X495096Y378646D01*
Y380213D01*
X496623Y381740D01*
X497185Y382580D01*
X497382Y383572D01*
Y392113D01*
X498635Y392632D01*
X500227Y393853D01*
X501448Y395445D01*
X502216Y397299D01*
X502456Y399120D01*
X503511Y399797D01*
X503553Y399818D01*
X507696Y395675D01*
D02*
G37*
G36*
X441910Y410278D02*
Y408178D01*
X442107Y407187D01*
X442669Y406347D01*
X457150Y391865D01*
Y355520D01*
X455880Y354994D01*
X452465Y358410D01*
X452407Y358497D01*
X438200Y372704D01*
Y409385D01*
X439453Y409904D01*
X440640Y410815D01*
X441910Y410278D01*
D02*
G37*
G36*
X533096Y388192D02*
Y364490D01*
X533293Y363499D01*
X533855Y362659D01*
X537411Y359103D01*
X538251Y358541D01*
X539242Y358344D01*
X542735D01*
X543254Y357091D01*
X544475Y355499D01*
X546067Y354278D01*
X547921Y353510D01*
X549910Y353248D01*
X551899Y353510D01*
X553753Y354278D01*
X554940Y355189D01*
X556210Y354652D01*
Y350323D01*
X553917Y348030D01*
X547350D01*
Y348210D01*
X537310D01*
Y346456D01*
X537089Y346200D01*
X536203Y345708D01*
X535996Y345693D01*
X534627Y346260D01*
X532638Y346522D01*
X531633Y346390D01*
X531479Y346430D01*
X530402Y347472D01*
Y387293D01*
X531826Y388718D01*
X533096Y388192D01*
D02*
G37*
G36*
X414002Y576022D02*
X413435Y575787D01*
X411498Y574301D01*
X410013Y572365D01*
X409078Y570110D01*
X408760Y567690D01*
X409078Y565270D01*
X410013Y563015D01*
X411498Y561079D01*
X413435Y559593D01*
X415520Y558729D01*
Y556597D01*
X395679Y536755D01*
X395117Y535915D01*
X394920Y534924D01*
Y343848D01*
X393650Y343311D01*
X392463Y344222D01*
X391210Y344741D01*
Y574999D01*
X393503Y577292D01*
X413750D01*
X414002Y576022D01*
D02*
G37*
G36*
X386030Y460259D02*
Y344741D01*
X384777Y344222D01*
X383185Y343001D01*
X382574Y342204D01*
X381304Y342635D01*
Y458153D01*
X382557Y458672D01*
X384149Y459893D01*
X384760Y460690D01*
X386030Y460259D01*
D02*
G37*
G36*
X524975Y339005D02*
X524952Y338836D01*
X525214Y336847D01*
X525982Y334993D01*
X527203Y333401D01*
X528795Y332180D01*
X530649Y331412D01*
X532638Y331150D01*
X534627Y331412D01*
X534701Y331442D01*
X535970Y330594D01*
Y327660D01*
X536040Y327309D01*
Y325219D01*
X535729Y325178D01*
X534132Y324516D01*
X533400Y324662D01*
X512724D01*
X512215Y324763D01*
X511248Y325729D01*
X511053Y326713D01*
X510496Y327546D01*
X509662Y328103D01*
X509477Y328140D01*
X509059Y329518D01*
X519598Y340056D01*
X523748D01*
X523834Y340073D01*
X524975Y339005D01*
D02*
G37*
G36*
X480071Y326086D02*
X478943Y325221D01*
X477722Y323629D01*
X476954Y321775D01*
X476692Y319786D01*
X476954Y317797D01*
X477722Y315943D01*
X478943Y314351D01*
X480535Y313130D01*
X482389Y312362D01*
X484378Y312100D01*
X486367Y312362D01*
X488221Y313130D01*
X488886Y313640D01*
X499180D01*
X499584Y313721D01*
X500440Y313465D01*
X500915Y312808D01*
X501002Y312372D01*
X501446Y311708D01*
X501273Y310987D01*
X500971Y310404D01*
X500151Y310241D01*
X499311Y309679D01*
X497533Y307901D01*
X496971Y307061D01*
X496811Y306257D01*
X496194Y306004D01*
X495504Y305982D01*
X494385Y307441D01*
X492793Y308662D01*
X490939Y309430D01*
X488950Y309692D01*
X486961Y309430D01*
X485107Y308662D01*
X483515Y307441D01*
X482294Y305849D01*
X482272Y305797D01*
X480818Y305606D01*
X480161Y306463D01*
X478569Y307684D01*
X476715Y308452D01*
X474726Y308714D01*
X472737Y308452D01*
X470883Y307684D01*
X469291Y306463D01*
X468070Y304871D01*
X467302Y303017D01*
X467040Y301028D01*
X467302Y299039D01*
X467821Y297786D01*
X464011Y293976D01*
X462838Y294462D01*
Y319254D01*
X462641Y320245D01*
X462584Y320330D01*
Y321886D01*
X463854Y322423D01*
X465041Y321512D01*
X466895Y320744D01*
X468884Y320482D01*
X470873Y320744D01*
X472727Y321512D01*
X474319Y322733D01*
X475540Y324325D01*
X476308Y326179D01*
X476463Y327356D01*
X479640D01*
X480071Y326086D01*
D02*
G37*
G36*
X667970Y407924D02*
X668167Y406933D01*
X668729Y406093D01*
X669497Y405324D01*
X668978Y404071D01*
X668716Y402082D01*
X668978Y400093D01*
X669746Y398239D01*
X670967Y396647D01*
X672559Y395426D01*
X674413Y394658D01*
X676402Y394396D01*
X677938Y394598D01*
X678531Y393396D01*
X597605Y312470D01*
X590482D01*
X589945Y313740D01*
X590856Y314927D01*
X591624Y316781D01*
X591886Y318770D01*
X591624Y320759D01*
X590856Y322613D01*
X589635Y324205D01*
X589714Y325744D01*
X589842Y325830D01*
X593651Y329639D01*
X594213Y330479D01*
X594410Y331470D01*
Y408890D01*
X666750D01*
X667970Y407924D01*
D02*
G37*
G36*
X563847Y347420D02*
X565100Y346901D01*
Y345440D01*
X565170Y345089D01*
Y342670D01*
X570101D01*
Y338772D01*
X568439Y337111D01*
X567878Y336271D01*
X567681Y335280D01*
Y322580D01*
X567878Y321589D01*
X568439Y320749D01*
X572249Y316939D01*
X573090Y316377D01*
X574081Y316180D01*
X577025D01*
X577544Y314927D01*
X578455Y313740D01*
X577918Y312470D01*
X568763D01*
X556073Y325160D01*
X556653Y326376D01*
X558249Y326586D01*
X560103Y327354D01*
X561695Y328575D01*
X562916Y330167D01*
X563684Y332021D01*
X563946Y334010D01*
X563684Y335999D01*
X562916Y337853D01*
X561695Y339445D01*
X560103Y340666D01*
X558249Y341434D01*
X556260Y341696D01*
X554271Y341434D01*
X552417Y340666D01*
X550825Y339445D01*
X549604Y337853D01*
X549085Y336600D01*
X541274D01*
X540920Y336816D01*
X540176Y337711D01*
X540324Y338836D01*
X540062Y340825D01*
X540035Y340890D01*
X541324Y341801D01*
X541477Y341962D01*
X541661Y342085D01*
X541822Y342324D01*
X542020Y342533D01*
X542073Y342670D01*
X547350D01*
Y342850D01*
X554990D01*
X555981Y343047D01*
X556821Y343609D01*
X560631Y347419D01*
X561079Y348088D01*
X561483Y348279D01*
X561673Y348323D01*
X562523Y348436D01*
X563847Y347420D01*
D02*
G37*
G36*
X457404Y332170D02*
Y319508D01*
X457601Y318517D01*
X457658Y318432D01*
Y311590D01*
X456388Y311053D01*
X455201Y311964D01*
X453347Y312732D01*
X451358Y312994D01*
X449369Y312732D01*
X447515Y311964D01*
X445923Y310743D01*
X444702Y309151D01*
X443934Y307297D01*
X443788Y306185D01*
X442518Y306269D01*
Y318943D01*
X456231Y332657D01*
X457404Y332170D01*
D02*
G37*
G36*
X460649Y344504D02*
X460667Y344417D01*
X438097Y321847D01*
X437535Y321007D01*
X437338Y320016D01*
Y304514D01*
X436165Y304028D01*
X423556Y316637D01*
X423974Y318015D01*
X424159Y318052D01*
X424992Y318609D01*
X425549Y319443D01*
X425745Y320426D01*
X426711Y321392D01*
X427694Y321588D01*
X428528Y322145D01*
X429085Y322978D01*
X429281Y323961D01*
X430246Y324928D01*
X431230Y325123D01*
X432063Y325680D01*
X432620Y326514D01*
X432816Y327497D01*
X433782Y328463D01*
X434765Y328659D01*
X435599Y329216D01*
X436156Y330050D01*
X436351Y331033D01*
X437317Y331999D01*
X438300Y332194D01*
X439134Y332751D01*
X439691Y333585D01*
X439887Y334568D01*
X440453Y335258D01*
X448535D01*
X449526Y335455D01*
X450366Y336017D01*
X459271Y344922D01*
X460649Y344504D01*
D02*
G37*
G36*
X402557Y351992D02*
X403810Y351473D01*
Y319044D01*
X404007Y318053D01*
X404569Y317213D01*
X405839Y315943D01*
X406679Y315382D01*
X407670Y315185D01*
X410641D01*
X414287Y311538D01*
X415121Y310981D01*
X416104Y310786D01*
X417087Y310981D01*
X417921Y311538D01*
X418478Y312372D01*
X418515Y312557D01*
X419893Y312975D01*
X433528Y299340D01*
Y291633D01*
X432627Y291225D01*
X432301Y291184D01*
X432063Y291540D01*
X431230Y292097D01*
X430246Y292293D01*
X429281Y293259D01*
X429085Y294242D01*
X428528Y295075D01*
X427694Y295632D01*
X426711Y295828D01*
X425745Y296794D01*
X425549Y297778D01*
X424992Y298611D01*
X424159Y299168D01*
X423176Y299364D01*
X422209Y300329D01*
X422014Y301313D01*
X421457Y302146D01*
X420623Y302703D01*
X419640Y302899D01*
X418674Y303865D01*
X418478Y304848D01*
X417921Y305682D01*
X417087Y306239D01*
X416104Y306434D01*
X415121Y306239D01*
X414287Y305682D01*
X406249Y297643D01*
X405443Y297800D01*
X404868Y298058D01*
X404166Y299753D01*
X402945Y301345D01*
X401353Y302566D01*
X400100Y303085D01*
Y352366D01*
X401370Y352903D01*
X402557Y351992D01*
D02*
G37*
G36*
X410115Y273254D02*
X407928Y271068D01*
X402082D01*
X401091Y270871D01*
X400251Y270309D01*
X400244Y270303D01*
X398991Y270822D01*
X397002Y271084D01*
X395013Y270822D01*
X393159Y270054D01*
X391567Y268833D01*
X390346Y267241D01*
X389578Y265387D01*
X389316Y263398D01*
X389578Y261409D01*
X390346Y259555D01*
X391567Y257963D01*
X392757Y257050D01*
X392326Y255781D01*
X381461D01*
X380470Y255583D01*
X379630Y255022D01*
X377892Y253285D01*
X376639Y253804D01*
X374650Y254066D01*
X372661Y253804D01*
X370807Y253036D01*
X369215Y251815D01*
X367994Y250223D01*
X367226Y248369D01*
X366964Y246380D01*
X367226Y244391D01*
X367994Y242537D01*
X369215Y240945D01*
X370807Y239724D01*
X372661Y238956D01*
X374650Y238694D01*
X376639Y238956D01*
X378493Y239724D01*
X380085Y240945D01*
X381306Y242537D01*
X382074Y244391D01*
X382336Y246380D01*
X382074Y248369D01*
X381555Y249622D01*
X382533Y250601D01*
X397280D01*
Y245671D01*
X397460D01*
Y236298D01*
X397657Y235307D01*
X398219Y234466D01*
X400000Y232685D01*
Y231072D01*
X398730Y230535D01*
X397543Y231446D01*
X395689Y232214D01*
X393700Y232476D01*
X391711Y232214D01*
X389857Y231446D01*
X388265Y230225D01*
X387044Y228633D01*
X386525Y227380D01*
X308921D01*
X307898Y228403D01*
Y229744D01*
X308610Y230328D01*
X352806D01*
X353797Y230525D01*
X354637Y231087D01*
X358546Y234995D01*
X359107Y235835D01*
X359304Y236827D01*
Y244644D01*
X389185Y274524D01*
X409589D01*
X410115Y273254D01*
D02*
G37*
G36*
X493343Y270820D02*
X493202Y269748D01*
X493464Y267759D01*
X494232Y265905D01*
X495453Y264313D01*
X497045Y263092D01*
X498899Y262324D01*
X500888Y262062D01*
X502877Y262324D01*
X504731Y263092D01*
X506323Y264313D01*
X507544Y265905D01*
X507735Y266365D01*
X509002Y266590D01*
X509647Y265974D01*
X509610Y264606D01*
X484579Y239575D01*
X484017Y238734D01*
X483820Y237743D01*
Y227133D01*
X476959Y220271D01*
X475374Y220185D01*
X471910Y223649D01*
X471931Y223691D01*
X472608Y224746D01*
X474429Y224986D01*
X476283Y225754D01*
X477875Y226975D01*
X479096Y228567D01*
X479864Y230421D01*
X480126Y232410D01*
X479864Y234399D01*
X479096Y236253D01*
X477875Y237845D01*
X476283Y239066D01*
X475030Y239585D01*
Y241705D01*
X474833Y242696D01*
X474271Y243537D01*
X462838Y254970D01*
Y261328D01*
X464011Y261814D01*
X467015Y258811D01*
X467073Y258724D01*
X467160Y258665D01*
X471507Y254319D01*
X472341Y253762D01*
X473324Y253566D01*
X474307Y253762D01*
X475141Y254319D01*
X475698Y255152D01*
X475893Y256135D01*
X476859Y257102D01*
X477843Y257297D01*
X478676Y257854D01*
X479233Y258688D01*
X479429Y259671D01*
X480395Y260637D01*
X481378Y260833D01*
X482211Y261390D01*
X482768Y262223D01*
X482964Y263207D01*
X483930Y264173D01*
X484913Y264369D01*
X485747Y264925D01*
X486304Y265759D01*
X486500Y266742D01*
X487466Y267708D01*
X488449Y267904D01*
X489282Y268461D01*
X489839Y269294D01*
X490035Y270278D01*
X491002Y271244D01*
X491985Y271439D01*
X492159Y271556D01*
X493343Y270820D01*
D02*
G37*
G36*
X431242Y248628D02*
Y245477D01*
X431439Y244486D01*
X432001Y243646D01*
X439176Y236471D01*
X438690Y235297D01*
X419600D01*
X410470Y244428D01*
X410956Y245601D01*
X425483D01*
X426474Y245798D01*
X427314Y246360D01*
X430069Y249114D01*
X431242Y248628D01*
D02*
G37*
G36*
X387044Y220947D02*
X387145Y220816D01*
X386583Y219677D01*
X313575D01*
X312226Y221027D01*
X312712Y222200D01*
X386525D01*
X387044Y220947D01*
D02*
G37*
G36*
X416696Y230876D02*
X417536Y230315D01*
X418527Y230118D01*
X444614D01*
X456606Y218126D01*
X456087Y216873D01*
X455825Y214884D01*
X456087Y212895D01*
X456855Y211041D01*
X457822Y209781D01*
X457355Y208511D01*
X455991D01*
Y208511D01*
X455141Y208159D01*
X453900Y209400D01*
X454419Y210653D01*
X454681Y212643D01*
X454419Y214632D01*
X453651Y216486D01*
X452430Y218077D01*
X450838Y219299D01*
X448984Y220067D01*
X446995Y220329D01*
X445006Y220067D01*
X443152Y219299D01*
X441561Y218077D01*
X440339Y216486D01*
X439571Y214632D01*
X439310Y212643D01*
X439571Y210653D01*
X440339Y208800D01*
X441561Y207208D01*
X443152Y205987D01*
X445006Y205219D01*
X446995Y204957D01*
X448984Y205219D01*
X450238Y205738D01*
X452070Y203905D01*
Y138410D01*
X451890D01*
Y128370D01*
X452070D01*
Y121149D01*
X451920Y120396D01*
X451030Y119550D01*
X444990D01*
Y118370D01*
X443816Y117884D01*
X405180Y156521D01*
Y194310D01*
Y208280D01*
Y233758D01*
X404983Y234749D01*
X404421Y235589D01*
X402640Y237370D01*
Y243274D01*
X403813Y243760D01*
X416696Y230876D01*
D02*
G37*
G36*
X497961Y243970D02*
X498015Y243890D01*
X497831Y242964D01*
Y223346D01*
X496537Y222810D01*
X494945Y221589D01*
X493724Y219997D01*
X492956Y218143D01*
X492694Y216154D01*
X492956Y214165D01*
X493724Y212311D01*
X494829Y210871D01*
X494536Y209601D01*
X492507D01*
X491516Y209404D01*
X490676Y208842D01*
X490163Y208330D01*
X486310D01*
Y208510D01*
X481380D01*
Y217367D01*
X488241Y224229D01*
X488803Y225069D01*
X489000Y226060D01*
Y236671D01*
X496850Y244521D01*
X497961Y243970D01*
D02*
G37*
G36*
X475302Y176905D02*
X474708Y175702D01*
X473710Y175834D01*
X471721Y175572D01*
X469867Y174804D01*
X468275Y173583D01*
X467054Y171991D01*
X466286Y170137D01*
X466024Y168148D01*
X466286Y166159D01*
X467054Y164305D01*
X468275Y162713D01*
X469867Y161492D01*
X471120Y160973D01*
Y138480D01*
X468416D01*
X468216Y138440D01*
X463550D01*
X463199Y138370D01*
X460780D01*
Y128330D01*
X460960D01*
Y122739D01*
X459179Y120957D01*
X458961Y120632D01*
X458477Y120531D01*
X457250Y121523D01*
Y128370D01*
X457430D01*
Y138410D01*
X457250D01*
Y193298D01*
X458423Y193784D01*
X475302Y176905D01*
D02*
G37*
G36*
X483820Y168386D02*
Y134503D01*
X482797Y133480D01*
X476480D01*
Y138410D01*
X476300D01*
Y160973D01*
X477553Y161492D01*
X479145Y162713D01*
X480366Y164305D01*
X481134Y166159D01*
X481396Y168148D01*
X481264Y169146D01*
X482467Y169739D01*
X483820Y168386D01*
D02*
G37*
G36*
X470940Y128370D02*
X473359D01*
X473710Y128301D01*
X477891D01*
X490272Y115920D01*
X489746Y114650D01*
X479990D01*
Y110969D01*
X477030D01*
Y119550D01*
X470990D01*
Y119550D01*
X470530D01*
Y119550D01*
X466718D01*
X466050Y120520D01*
X465971Y120820D01*
X466140Y121666D01*
Y128330D01*
X466320D01*
Y133261D01*
X468376D01*
X468575Y133300D01*
X470940D01*
Y128370D01*
D02*
G37*
%LPC*%
G36*
X125730Y667957D02*
X122788Y667570D01*
X120046Y666434D01*
X117692Y664628D01*
X115886Y662274D01*
X114750Y659532D01*
X114363Y656590D01*
X114750Y653648D01*
X115886Y650906D01*
X117692Y648552D01*
X120046Y646746D01*
X122788Y645610D01*
X125730Y645223D01*
X128672Y645610D01*
X131414Y646746D01*
X133768Y648552D01*
X135574Y650906D01*
X136710Y653648D01*
X137097Y656590D01*
X136710Y659532D01*
X135574Y662274D01*
X133768Y664628D01*
X131414Y666434D01*
X128672Y667570D01*
X125730Y667957D01*
D02*
G37*
G36*
X418110Y602440D02*
X415690Y602121D01*
X413435Y601187D01*
X411498Y599701D01*
X410013Y597765D01*
X409078Y595510D01*
X408760Y593090D01*
X409078Y590670D01*
X410013Y588415D01*
X411498Y586479D01*
X413435Y584993D01*
X415690Y584059D01*
X418110Y583740D01*
X420530Y584059D01*
X422785Y584993D01*
X424721Y586479D01*
X426207Y588415D01*
X427141Y590670D01*
X427460Y593090D01*
X427141Y595510D01*
X426207Y597765D01*
X424721Y599701D01*
X422785Y601187D01*
X420530Y602121D01*
X418110Y602440D01*
D02*
G37*
G36*
X695960Y585930D02*
X693540Y585611D01*
X691285Y584677D01*
X689349Y583191D01*
X687863Y581255D01*
X686929Y579000D01*
X686610Y576580D01*
X686929Y574160D01*
X687863Y571905D01*
X689349Y569969D01*
X691285Y568483D01*
X693540Y567549D01*
X695960Y567230D01*
X698380Y567549D01*
X700635Y568483D01*
X702571Y569969D01*
X704057Y571905D01*
X704991Y574160D01*
X705310Y576580D01*
X704991Y579000D01*
X704057Y581255D01*
X702571Y583191D01*
X700635Y584677D01*
X698380Y585611D01*
X695960Y585930D01*
D02*
G37*
G36*
X99940Y578730D02*
X80400D01*
Y559190D01*
X99940D01*
Y578730D01*
D02*
G37*
G36*
X468910Y577040D02*
X466490Y576721D01*
X464235Y575787D01*
X462299Y574301D01*
X460813Y572365D01*
X459879Y570110D01*
X459560Y567690D01*
X459879Y565270D01*
X460813Y563015D01*
X462299Y561079D01*
X464235Y559593D01*
X466490Y558659D01*
X468910Y558340D01*
X471330Y558659D01*
X473585Y559593D01*
X475521Y561079D01*
X477007Y563015D01*
X477941Y565270D01*
X478260Y567690D01*
X477941Y570110D01*
X477007Y572365D01*
X475521Y574301D01*
X473585Y575787D01*
X471330Y576721D01*
X468910Y577040D01*
D02*
G37*
G36*
X218440Y577544D02*
X215889Y577209D01*
X213513Y576224D01*
X211472Y574658D01*
X209906Y572617D01*
X208922Y570241D01*
X208586Y567690D01*
X208922Y565140D01*
X209890Y562802D01*
X189939Y542851D01*
X189377Y542011D01*
X189180Y541020D01*
Y399392D01*
X186843Y398424D01*
X184802Y396858D01*
X183236Y394817D01*
X182251Y392440D01*
X181916Y389890D01*
X182251Y387340D01*
X183236Y384963D01*
X184802Y382922D01*
X186843Y381356D01*
X189219Y380372D01*
X191770Y380036D01*
X194321Y380372D01*
X196697Y381356D01*
X198738Y382922D01*
X200304Y384963D01*
X201289Y387340D01*
X201624Y389890D01*
X201289Y392440D01*
X200304Y394817D01*
X198738Y396858D01*
X196697Y398424D01*
X194360Y399392D01*
Y539947D01*
X213552Y559140D01*
X215889Y558172D01*
X218440Y557836D01*
X220991Y558172D01*
X223367Y559156D01*
X225408Y560722D01*
X226974Y562763D01*
X227959Y565140D01*
X228294Y567690D01*
X227959Y570241D01*
X226974Y572617D01*
X225408Y574658D01*
X223367Y576224D01*
X220991Y577209D01*
X218440Y577544D01*
D02*
G37*
G36*
X193040D02*
X190490Y577209D01*
X188113Y576224D01*
X186072Y574658D01*
X184506Y572617D01*
X183521Y570241D01*
X183186Y567690D01*
X183521Y565140D01*
X184490Y562802D01*
X164539Y542851D01*
X163977Y542011D01*
X163780Y541020D01*
Y399392D01*
X161443Y398424D01*
X159402Y396858D01*
X157836Y394817D01*
X156852Y392440D01*
X156516Y389890D01*
X156852Y387340D01*
X157836Y384963D01*
X159402Y382922D01*
X161443Y381356D01*
X163780Y380388D01*
Y154241D01*
X162527Y153722D01*
X160935Y152501D01*
X159714Y150909D01*
X158946Y149055D01*
X158684Y147066D01*
X158946Y145077D01*
X159714Y143223D01*
X160935Y141631D01*
X162527Y140410D01*
X164381Y139642D01*
X166370Y139380D01*
X168359Y139642D01*
X170213Y140410D01*
X171805Y141631D01*
X173026Y143223D01*
X173794Y145077D01*
X174056Y147066D01*
X173794Y149055D01*
X173026Y150909D01*
X171805Y152501D01*
X170213Y153722D01*
X168960Y154241D01*
Y380388D01*
X171297Y381356D01*
X173338Y382922D01*
X174904Y384963D01*
X175889Y387340D01*
X176224Y389890D01*
X175889Y392440D01*
X174904Y394817D01*
X173338Y396858D01*
X171297Y398424D01*
X168960Y399392D01*
Y539947D01*
X188152Y559140D01*
X190490Y558172D01*
X193040Y557836D01*
X195590Y558172D01*
X197967Y559156D01*
X200008Y560722D01*
X201574Y562763D01*
X202558Y565140D01*
X202894Y567690D01*
X202558Y570241D01*
X201574Y572617D01*
X200008Y574658D01*
X197967Y576224D01*
X195590Y577209D01*
X193040Y577544D01*
D02*
G37*
G36*
X243840D02*
X241290Y577209D01*
X238913Y576224D01*
X236872Y574658D01*
X235306Y572617D01*
X234321Y570241D01*
X233986Y567690D01*
X234321Y565140D01*
X235306Y562763D01*
X236872Y560722D01*
X238913Y559156D01*
X241250Y558188D01*
Y507809D01*
X239997Y507290D01*
X238405Y506069D01*
X237184Y504477D01*
X236416Y502623D01*
X236154Y500634D01*
X236416Y498645D01*
X237184Y496791D01*
X238405Y495199D01*
X239997Y493978D01*
X241851Y493210D01*
X243840Y492948D01*
X245829Y493210D01*
X247683Y493978D01*
X249275Y495199D01*
X250496Y496791D01*
X251264Y498645D01*
X251526Y500634D01*
X251264Y502623D01*
X250496Y504477D01*
X249275Y506069D01*
X247683Y507290D01*
X246430Y507809D01*
Y558188D01*
X248767Y559156D01*
X250808Y560722D01*
X252374Y562763D01*
X253358Y565140D01*
X253694Y567690D01*
X253358Y570241D01*
X252374Y572617D01*
X250808Y574658D01*
X248767Y576224D01*
X246390Y577209D01*
X243840Y577544D01*
D02*
G37*
G36*
X90170Y553414D02*
X87619Y553078D01*
X85243Y552094D01*
X83202Y550528D01*
X81636Y548487D01*
X80652Y546110D01*
X80316Y543560D01*
X80652Y541009D01*
X81636Y538633D01*
X83202Y536592D01*
X85243Y535026D01*
X87619Y534041D01*
X90170Y533706D01*
X92720Y534041D01*
X95058Y535010D01*
X127564Y502504D01*
X127078Y501330D01*
X126572D01*
Y483790D01*
X149112D01*
Y501330D01*
X135344D01*
X135235Y501879D01*
X134673Y502719D01*
X98720Y538672D01*
X99689Y541009D01*
X100024Y543560D01*
X99689Y546110D01*
X98704Y548487D01*
X97138Y550528D01*
X95097Y552094D01*
X92720Y553078D01*
X90170Y553414D01*
D02*
G37*
G36*
X494310Y577040D02*
X491890Y576721D01*
X489635Y575787D01*
X487699Y574301D01*
X486213Y572365D01*
X485279Y570110D01*
X484960Y567690D01*
X485279Y565270D01*
X486213Y563015D01*
X487699Y561079D01*
X489635Y559593D01*
X491720Y558729D01*
Y525500D01*
X491917Y524509D01*
X492479Y523669D01*
X492710Y523437D01*
Y490832D01*
X490373Y489864D01*
X488332Y488298D01*
X486766Y486257D01*
X485782Y483881D01*
X485446Y481330D01*
X485782Y478779D01*
X486766Y476403D01*
X488332Y474362D01*
X490373Y472796D01*
X492749Y471811D01*
X495300Y471476D01*
X497850Y471811D01*
X500227Y472796D01*
X502268Y474362D01*
X503834Y476403D01*
X504818Y478779D01*
X505154Y481330D01*
X504818Y483881D01*
X503834Y486257D01*
X502268Y488298D01*
X500227Y489864D01*
X497890Y490832D01*
Y524510D01*
X497693Y525501D01*
X497131Y526341D01*
X496900Y526573D01*
Y558729D01*
X498985Y559593D01*
X500921Y561079D01*
X502407Y563015D01*
X503341Y565270D01*
X503660Y567690D01*
X503341Y570110D01*
X502407Y572365D01*
X500921Y574301D01*
X498985Y575787D01*
X496730Y576721D01*
X494310Y577040D01*
D02*
G37*
G36*
X863210Y425126D02*
X861221Y424864D01*
X859368Y424096D01*
X857776Y422875D01*
X856554Y421283D01*
X855787Y419430D01*
X855525Y417440D01*
X855787Y415451D01*
X856554Y413597D01*
X857776Y412006D01*
X859368Y410784D01*
X860621Y410265D01*
Y406065D01*
X859447Y405579D01*
X855017Y410009D01*
X854177Y410571D01*
X853186Y410768D01*
X844359D01*
X843840Y412021D01*
X842619Y413613D01*
X841027Y414834D01*
X839173Y415602D01*
X837184Y415864D01*
X835195Y415602D01*
X833341Y414834D01*
X831749Y413613D01*
X830528Y412021D01*
X829760Y410167D01*
X829498Y408178D01*
X829760Y406189D01*
X830528Y404335D01*
X831749Y402743D01*
X833341Y401522D01*
X835195Y400754D01*
X837184Y400492D01*
X839173Y400754D01*
X841027Y401522D01*
X842619Y402743D01*
X843840Y404335D01*
X844359Y405588D01*
X852113D01*
X856811Y400891D01*
Y396901D01*
X855608Y396493D01*
X855328Y396858D01*
X853287Y398424D01*
X850910Y399408D01*
X848360Y399744D01*
X845809Y399408D01*
X843433Y398424D01*
X841392Y396858D01*
X839826Y394817D01*
X838841Y392440D01*
X838506Y389890D01*
X838841Y387340D01*
X839826Y384963D01*
X841392Y382922D01*
X843433Y381356D01*
X845770Y380388D01*
Y128270D01*
X845967Y127279D01*
X846529Y126439D01*
X863990Y108977D01*
Y93100D01*
X883530D01*
Y112640D01*
X867653D01*
X850950Y129343D01*
Y380388D01*
X853287Y381356D01*
X855328Y382922D01*
X855608Y383287D01*
X856811Y382879D01*
Y379975D01*
X856381Y379333D01*
X856184Y378342D01*
Y133604D01*
X856381Y132613D01*
X856943Y131773D01*
X862277Y126439D01*
X863117Y125877D01*
X864108Y125680D01*
X864258D01*
X865226Y123343D01*
X866792Y121302D01*
X868833Y119736D01*
X871209Y118751D01*
X873760Y118416D01*
X876311Y118751D01*
X878687Y119736D01*
X880728Y121302D01*
X882294Y123343D01*
X883279Y125719D01*
X883614Y128270D01*
X883279Y130821D01*
X882294Y133197D01*
X880728Y135238D01*
X878687Y136804D01*
X876311Y137788D01*
X873760Y138124D01*
X871209Y137788D01*
X868833Y136804D01*
X866792Y135238D01*
X865226Y133197D01*
X864966Y132568D01*
X863720Y132321D01*
X861364Y134677D01*
Y167348D01*
X862537Y167834D01*
X864309Y166063D01*
X865149Y165501D01*
X866140Y165304D01*
X868877D01*
X870248Y163933D01*
X870000Y162688D01*
X868833Y162204D01*
X866792Y160638D01*
X865226Y158597D01*
X864241Y156221D01*
X863906Y153670D01*
X864241Y151119D01*
X865226Y148743D01*
X866792Y146702D01*
X868833Y145136D01*
X871209Y144151D01*
X873760Y143816D01*
X876311Y144151D01*
X878687Y145136D01*
X880728Y146702D01*
X882294Y148743D01*
X883279Y151119D01*
X883614Y153670D01*
X883279Y156221D01*
X882294Y158597D01*
X880728Y160638D01*
X878687Y162204D01*
X876350Y163172D01*
Y164084D01*
X876153Y165075D01*
X875591Y165915D01*
X873412Y168094D01*
X874049Y169254D01*
X876311Y169552D01*
X878687Y170536D01*
X880728Y172102D01*
X882294Y174143D01*
X883279Y176520D01*
X883614Y179070D01*
X883279Y181621D01*
X882294Y183997D01*
X880728Y186038D01*
X878687Y187604D01*
X876311Y188589D01*
X873760Y188924D01*
X871209Y188589D01*
X868833Y187604D01*
X866792Y186038D01*
X866444Y185584D01*
X865174Y186015D01*
Y373406D01*
X865603Y374049D01*
X865800Y375040D01*
Y410265D01*
X867053Y410784D01*
X868645Y412006D01*
X869866Y413597D01*
X870634Y415451D01*
X870896Y417440D01*
X870634Y419430D01*
X869866Y421283D01*
X868645Y422875D01*
X867053Y424096D01*
X865200Y424864D01*
X863210Y425126D01*
D02*
G37*
G36*
X99940Y399660D02*
X80400D01*
Y380120D01*
X99940D01*
Y399660D01*
D02*
G37*
G36*
X822960Y399744D02*
X820409Y399408D01*
X818033Y398424D01*
X815992Y396858D01*
X814426Y394817D01*
X813441Y392440D01*
X813106Y389890D01*
X813441Y387340D01*
X814426Y384963D01*
X815992Y382922D01*
X818033Y381356D01*
X820409Y380372D01*
X822960Y380036D01*
X825510Y380372D01*
X827887Y381356D01*
X829928Y382922D01*
X831494Y384963D01*
X832478Y387340D01*
X832814Y389890D01*
X832478Y392440D01*
X831494Y394817D01*
X829928Y396858D01*
X827887Y398424D01*
X825510Y399408D01*
X822960Y399744D01*
D02*
G37*
G36*
X797560D02*
X795010Y399408D01*
X792633Y398424D01*
X790592Y396858D01*
X789026Y394817D01*
X788042Y392440D01*
X787706Y389890D01*
X788042Y387340D01*
X789026Y384963D01*
X790592Y382922D01*
X792633Y381356D01*
X795010Y380372D01*
X797560Y380036D01*
X800110Y380372D01*
X802487Y381356D01*
X804528Y382922D01*
X806094Y384963D01*
X807078Y387340D01*
X807414Y389890D01*
X807078Y392440D01*
X806094Y394817D01*
X804528Y396858D01*
X802487Y398424D01*
X800110Y399408D01*
X797560Y399744D01*
D02*
G37*
G36*
X772160D02*
X769610Y399408D01*
X767233Y398424D01*
X765192Y396858D01*
X763626Y394817D01*
X762642Y392440D01*
X762306Y389890D01*
X762642Y387340D01*
X763626Y384963D01*
X765192Y382922D01*
X767233Y381356D01*
X769610Y380372D01*
X772160Y380036D01*
X774710Y380372D01*
X777087Y381356D01*
X779128Y382922D01*
X780694Y384963D01*
X781678Y387340D01*
X782014Y389890D01*
X781678Y392440D01*
X780694Y394817D01*
X779128Y396858D01*
X777087Y398424D01*
X774710Y399408D01*
X772160Y399744D01*
D02*
G37*
G36*
X140970D02*
X138420Y399408D01*
X136043Y398424D01*
X134002Y396858D01*
X132436Y394817D01*
X131452Y392440D01*
X131116Y389890D01*
X131452Y387340D01*
X132436Y384963D01*
X134002Y382922D01*
X136043Y381356D01*
X138420Y380372D01*
X140970Y380036D01*
X143520Y380372D01*
X145897Y381356D01*
X147938Y382922D01*
X149504Y384963D01*
X150489Y387340D01*
X150824Y389890D01*
X150489Y392440D01*
X149504Y394817D01*
X147938Y396858D01*
X145897Y398424D01*
X143520Y399408D01*
X140970Y399744D01*
D02*
G37*
G36*
X115570D02*
X113020Y399408D01*
X110643Y398424D01*
X108602Y396858D01*
X107036Y394817D01*
X106052Y392440D01*
X105716Y389890D01*
X106052Y387340D01*
X107036Y384963D01*
X108602Y382922D01*
X110643Y381356D01*
X113020Y380372D01*
X115570Y380036D01*
X118120Y380372D01*
X120497Y381356D01*
X122538Y382922D01*
X124104Y384963D01*
X125089Y387340D01*
X125424Y389890D01*
X125089Y392440D01*
X124104Y394817D01*
X122538Y396858D01*
X120497Y398424D01*
X118120Y399408D01*
X115570Y399744D01*
D02*
G37*
G36*
X279010Y577460D02*
X259470D01*
Y557920D01*
X266650D01*
Y431546D01*
X266847Y430555D01*
X267409Y429715D01*
X338027Y359096D01*
X337508Y357843D01*
X337246Y355854D01*
X337508Y353865D01*
X338276Y352011D01*
X339497Y350419D01*
X341089Y349198D01*
X342943Y348430D01*
X344932Y348168D01*
X346921Y348430D01*
X348775Y349198D01*
X350367Y350419D01*
X351588Y352011D01*
X352356Y353865D01*
X352618Y355854D01*
X352356Y357843D01*
X351588Y359697D01*
X350367Y361289D01*
X348775Y362510D01*
X346921Y363278D01*
X344932Y363540D01*
X342943Y363278D01*
X341690Y362759D01*
X271830Y432619D01*
Y557920D01*
X279010D01*
Y577460D01*
D02*
G37*
G36*
X603711Y261028D02*
X601682Y260761D01*
X599792Y259978D01*
X598169Y258732D01*
X596924Y257109D01*
X596141Y255219D01*
X595874Y253191D01*
X596141Y251162D01*
X596924Y249272D01*
X598169Y247649D01*
X599792Y246404D01*
X601682Y245621D01*
X603711Y245354D01*
X605739Y245621D01*
X607629Y246404D01*
X609252Y247649D01*
X610498Y249272D01*
X611281Y251162D01*
X611548Y253191D01*
X611281Y255219D01*
X610498Y257109D01*
X609252Y258732D01*
X607629Y259978D01*
X605739Y260761D01*
X603711Y261028D01*
D02*
G37*
G36*
X756530Y399660D02*
X736990D01*
Y380120D01*
X744170D01*
Y250253D01*
X742917Y249734D01*
X741325Y248513D01*
X740104Y246921D01*
X739336Y245067D01*
X739074Y243078D01*
X739336Y241089D01*
X740104Y239235D01*
X741325Y237643D01*
X742917Y236422D01*
X744771Y235654D01*
X746760Y235392D01*
X748749Y235654D01*
X750603Y236422D01*
X752195Y237643D01*
X753416Y239235D01*
X754184Y241089D01*
X754446Y243078D01*
X754184Y245067D01*
X753416Y246921D01*
X752195Y248513D01*
X750603Y249734D01*
X749350Y250253D01*
Y380120D01*
X756530D01*
Y399660D01*
D02*
G37*
G36*
X569769Y227086D02*
X567741Y226819D01*
X565851Y226036D01*
X564228Y224791D01*
X562982Y223168D01*
X562199Y221278D01*
X561932Y219249D01*
X562199Y217221D01*
X562982Y215331D01*
X564228Y213708D01*
X565851Y212462D01*
X567741Y211679D01*
X569769Y211412D01*
X571798Y211679D01*
X573688Y212462D01*
X575311Y213708D01*
X576556Y215331D01*
X577339Y217221D01*
X577606Y219249D01*
X577339Y221278D01*
X576556Y223168D01*
X575311Y224791D01*
X573688Y226036D01*
X571798Y226819D01*
X569769Y227086D01*
D02*
G37*
G36*
X623200Y123950D02*
X599660D01*
Y89410D01*
X623200D01*
Y123950D01*
D02*
G37*
G36*
X-1270Y72327D02*
X-4212Y71940D01*
X-6954Y70804D01*
X-9308Y68998D01*
X-11114Y66644D01*
X-12250Y63902D01*
X-12637Y60960D01*
X-12250Y58018D01*
X-11114Y55276D01*
X-9308Y52922D01*
X-6954Y51116D01*
X-4212Y49980D01*
X-1270Y49593D01*
X1672Y49980D01*
X4414Y51116D01*
X6768Y52922D01*
X8574Y55276D01*
X9710Y58018D01*
X10097Y60960D01*
X9710Y63902D01*
X8574Y66644D01*
X6768Y68998D01*
X4414Y70804D01*
X1672Y71940D01*
X-1270Y72327D01*
D02*
G37*
G36*
X886460Y58357D02*
X883518Y57970D01*
X880776Y56834D01*
X878422Y55028D01*
X876616Y52674D01*
X875480Y49932D01*
X875093Y46990D01*
X875480Y44048D01*
X876616Y41306D01*
X878422Y38952D01*
X880776Y37146D01*
X883518Y36010D01*
X886460Y35623D01*
X889402Y36010D01*
X892144Y37146D01*
X894498Y38952D01*
X896304Y41306D01*
X897440Y44048D01*
X897827Y46990D01*
X897440Y49932D01*
X896304Y52674D01*
X894498Y55028D01*
X892144Y56834D01*
X889402Y57970D01*
X886460Y58357D01*
D02*
G37*
%LPD*%
D16*
X488950Y87884D02*
X497260D01*
X427990Y102616D02*
X436760D01*
X500421Y216113D02*
Y242964D01*
X132842Y492560D02*
Y500888D01*
X438658Y584962D02*
X443510D01*
X451612Y516636D02*
Y567690D01*
X436760Y102616D02*
Y108380D01*
Y97790D02*
Y102616D01*
X670560Y407924D02*
Y415290D01*
X515620Y247730D02*
X518160D01*
X505186D02*
X515620D01*
X500421Y207011D02*
Y216113D01*
X487426Y205740D02*
X491236D01*
X483790D02*
X487426D01*
X403044Y248191D02*
X425483D01*
X400050D02*
X403044D01*
X305308Y227330D02*
Y236220D01*
Y244670D01*
Y224282D02*
Y227330D01*
X590550Y562610D02*
Y574040D01*
Y490220D02*
Y562610D01*
X478790Y213106D02*
Y218440D01*
X478964Y130890D02*
X483870D01*
X458511Y197358D02*
Y201930D01*
X514350Y346710D02*
Y408550D01*
X475911Y108380D02*
X485260D01*
X474010Y110280D02*
X475911Y108380D01*
X574081Y318770D02*
X584200D01*
X570271Y322580D02*
X574081Y318770D01*
X570271Y322580D02*
Y327661D01*
X539830Y343916D02*
Y345440D01*
X532638Y338836D02*
X539830Y343916D01*
X422910Y360426D02*
X424180D01*
X420116Y357632D02*
X422910Y360426D01*
X420116Y337627D02*
Y357632D01*
Y337627D02*
X425827Y331917D01*
X191770Y541020D02*
X218440Y567690D01*
X191770Y389890D02*
Y541020D01*
X445770Y110280D02*
X448010D01*
X445008Y111042D02*
X445770Y110280D01*
X445008Y111042D02*
Y113030D01*
X402590Y155448D02*
X445008Y113030D01*
X402590Y155448D02*
Y194310D01*
X514096Y249254D02*
X515620Y247730D01*
X514096Y249254D02*
Y256540D01*
X516890Y259334D01*
X525780D01*
X527558Y261112D01*
Y290322D01*
X510032Y307848D02*
X527558Y290322D01*
X501142Y307848D02*
X510032D01*
X499364Y306070D02*
X501142Y307848D01*
X499364Y300806D02*
Y306070D01*
Y300806D02*
X504260Y295910D01*
X425483Y248191D02*
X430022Y252730D01*
Y268286D01*
X436433Y274697D01*
X387350Y208026D02*
X397590Y197786D01*
X421132Y260858D02*
Y268149D01*
X431216Y278233D01*
X432898D01*
X217170Y267970D02*
Y492760D01*
Y267970D02*
X285750Y199390D01*
X387350D01*
X567690Y345440D02*
Y354076D01*
X387350Y199390D02*
Y208026D01*
Y199390D02*
X397590Y197786D01*
Y194310D02*
Y197786D01*
X397002Y263398D02*
X402082Y268478D01*
X409001D01*
X425827Y285304D01*
X518160Y252730D02*
X519684D01*
X522200Y250214D01*
Y222788D02*
Y250214D01*
X518661Y219249D02*
X522200Y222788D01*
X451358Y299720D02*
Y305308D01*
Y299720D02*
X455168Y295910D01*
Y273929D02*
Y295910D01*
X447040Y265801D02*
X455168Y273929D01*
X447040Y264090D02*
Y265801D01*
X468904Y260555D02*
Y262266D01*
X464058Y267112D02*
X468904Y262266D01*
X464058Y267112D02*
Y290360D01*
X474726Y301028D01*
X473456Y277217D02*
Y286512D01*
Y277217D02*
X479511Y271162D01*
X501396Y372364D02*
X503682D01*
X506476Y369570D01*
Y344739D02*
Y369570D01*
X493653Y331917D02*
X506476Y344739D01*
X454660Y135890D02*
Y204978D01*
X446995Y212643D02*
X454660Y204978D01*
X472440Y232410D02*
Y241705D01*
X460248Y253897D02*
X472440Y241705D01*
X460248Y253897D02*
Y319254D01*
X459994Y319508D02*
X460248Y319254D01*
X459994Y319508D02*
Y334010D01*
X463169Y337185D01*
X477708D01*
X483046Y342523D01*
X473710Y135890D02*
Y168148D01*
X529082D02*
Y250190D01*
X531368Y252476D01*
Y300736D01*
X518922Y313182D02*
X531368Y300736D01*
X488037Y354584D02*
X492506D01*
X479511Y346058D02*
X488037Y354584D01*
X444500Y408178D02*
Y481330D01*
Y408178D02*
X459740Y392938D01*
Y349053D02*
Y392938D01*
X448535Y337848D02*
X459740Y349053D01*
X439398Y337848D02*
X448535D01*
X436433Y340812D02*
X439398Y337848D01*
X436433Y340812D02*
Y342523D01*
X432623Y338987D02*
X432898D01*
X428015Y345581D02*
X432623Y338987D01*
X428015Y345581D02*
Y349428D01*
X433070Y354483D01*
Y367183D01*
X419100Y381153D02*
X433070Y367183D01*
X419100Y381153D02*
Y481330D01*
X378714Y305308D02*
Y465328D01*
X500888Y269748D02*
Y274979D01*
X504190Y278281D01*
Y281837D01*
X497188Y288839D02*
X504190Y281837D01*
X418110Y555524D02*
Y567690D01*
X397510Y534924D02*
X418110Y555524D01*
X397510Y295910D02*
Y534924D01*
X513334Y272034D02*
X514858D01*
X509778Y275590D02*
X513334Y272034D01*
X509778Y275590D02*
Y283321D01*
X500724Y292375D02*
X509778Y283321D01*
X443510Y584962D02*
Y593090D01*
X433578Y579882D02*
X438658Y584962D01*
X392430Y579882D02*
X433578D01*
X388620Y576072D02*
X392430Y579882D01*
X388620Y337566D02*
Y576072D01*
X484378Y318770D02*
Y319786D01*
Y318770D02*
X486918Y316230D01*
X499180D01*
X504260Y321310D01*
X317500Y523160D02*
X325962D01*
X359410Y489712D01*
Y289560D02*
Y489712D01*
Y289560D02*
X361950Y287020D01*
X406330D01*
X415220Y295910D01*
X337310Y244670D02*
X349758Y246380D01*
X387858Y283210D01*
X409591D01*
X418756Y292375D01*
X864108Y128270D02*
X873760D01*
X858774Y133604D02*
X864108Y128270D01*
X858774Y133604D02*
Y378342D01*
X859400Y378968D01*
Y401964D01*
X853186Y408178D02*
X859400Y401964D01*
X837184Y408178D02*
X853186D01*
X485864Y365722D02*
Y413512D01*
X483616Y363474D02*
X485864Y365722D01*
X483616Y357235D02*
Y363474D01*
X475975Y349594D02*
X483616Y357235D01*
X287020Y441960D02*
Y462280D01*
Y441960D02*
X347980Y381000D01*
X494310Y525500D02*
Y567690D01*
Y525500D02*
X495300Y524510D01*
Y481330D02*
Y524510D01*
X458511Y201930D02*
Y205741D01*
Y201930D02*
X476250Y199390D01*
X478790Y205740D01*
X407670Y317774D02*
X411685D01*
X406400Y319044D02*
X407670Y317774D01*
X406400Y319044D02*
Y358648D01*
X546700Y386080D02*
Y487010D01*
X549910Y490220D01*
X590550D01*
X468630Y356665D02*
X468904D01*
X464058Y350108D02*
X468630Y356665D01*
X464058Y344146D02*
Y350108D01*
X439928Y320016D02*
X464058Y344146D01*
X439928Y295148D02*
Y320016D01*
Y295148D02*
X445008Y290068D01*
Y276201D02*
Y290068D01*
X439969Y271162D02*
X445008Y276201D01*
X243840Y500634D02*
Y567690D01*
X494792Y383572D02*
Y399288D01*
X492506Y381286D02*
X494792Y383572D01*
X492506Y368317D02*
Y381286D01*
Y368317D02*
X502666Y358157D01*
Y349250D02*
Y358157D01*
X499110Y345694D02*
X502666Y349250D01*
X493289Y345694D02*
X499110D01*
X486582Y338987D02*
X493289Y345694D01*
X537974Y398527D02*
Y580896D01*
X527812Y388366D02*
X537974Y398527D01*
X527812Y346710D02*
Y388366D01*
X523748Y342646D02*
X527812Y346710D01*
X518525Y342646D02*
X523748D01*
X500724Y324845D02*
X518525Y342646D01*
X443510Y567690D02*
X451612D01*
Y516636D02*
X481076Y487172D01*
Y469392D02*
Y487172D01*
Y469392D02*
X500634Y449834D01*
Y406400D02*
Y449834D01*
Y406400D02*
X510286Y396748D01*
Y343161D02*
Y396748D01*
X497188Y330063D02*
X510286Y343161D01*
X497188Y328381D02*
Y330063D01*
X269240Y431546D02*
Y567690D01*
Y431546D02*
X344932Y355854D01*
X468884Y328168D02*
X470662Y329946D01*
X482901D01*
X488408Y335452D01*
X490117D01*
X597662Y478282D02*
X670560Y551180D01*
X579120Y478282D02*
X597662D01*
X558800Y457962D02*
X579120Y478282D01*
X558800Y349250D02*
Y457962D01*
X554990Y345440D02*
X558800Y349250D01*
X544830Y345440D02*
X554990D01*
X873760Y153670D02*
Y164084D01*
X869950Y167894D02*
X873760Y164084D01*
X866140Y167894D02*
X869950D01*
X862584Y171450D02*
X866140Y167894D01*
X862584Y171450D02*
Y374413D01*
X863210Y375040D01*
Y417440D01*
X435610Y371631D02*
Y416560D01*
Y371631D02*
X450576Y356665D01*
X670560Y407924D02*
X676402Y402082D01*
X500380Y216154D02*
X500421Y216113D01*
X746760Y243078D02*
Y389890D01*
X307848Y224790D02*
X393700D01*
X305308Y227330D02*
X307848Y224790D01*
X305308Y244670D02*
X305310D01*
X493653Y285304D02*
Y287014D01*
X488950Y291717D02*
X493653Y287014D01*
X488950Y291717D02*
Y302006D01*
X541100Y334010D02*
X556260D01*
X538560Y331470D02*
X541100Y334010D01*
X538560Y327660D02*
Y331470D01*
X685292Y540512D02*
X695960Y551180D01*
X685292Y396494D02*
Y540512D01*
X598678Y309880D02*
X685292Y396494D01*
X567690Y309880D02*
X598678D01*
X549910Y327660D02*
X567690Y309880D01*
X543560Y327660D02*
X549910D01*
X507795Y317774D02*
Y319485D01*
X510382Y322072D01*
X533400D01*
X537718Y317754D01*
X539242Y360934D02*
X549910D01*
X535686Y364490D02*
X539242Y360934D01*
X535686Y364490D02*
Y388874D01*
X542798Y395986D01*
Y494538D01*
X548132Y499872D01*
Y594614D01*
X538988Y603758D02*
X548132Y594614D01*
X479578Y603758D02*
X538988D01*
X468910Y593090D02*
X479578Y603758D01*
X519350Y346710D02*
Y395652D01*
X527558Y403860D01*
Y423672D01*
X510540Y440690D02*
X527558Y423672D01*
X166370Y147066D02*
Y389890D01*
X381461Y253191D02*
X400050D01*
X374650Y246380D02*
X381461Y253191D01*
X463511Y205741D02*
Y214884D01*
X445687Y232708D02*
X463511Y214884D01*
X418527Y232708D02*
X445687D01*
X403044Y248191D02*
X418527Y232708D01*
X468904Y356665D02*
Y376073D01*
X472440Y353130D02*
Y354841D01*
X478790Y361190D01*
Y395732D01*
X476250Y398272D02*
X478790Y395732D01*
X476250Y398272D02*
Y474980D01*
X469900Y481330D02*
X476250Y474980D01*
X469900Y481330D02*
Y491490D01*
X466598Y494792D02*
X469900Y491490D01*
X411226Y494792D02*
X466598D01*
X407924Y491490D02*
X411226Y494792D01*
X407924Y384048D02*
Y491490D01*
Y384048D02*
X415290Y376682D01*
Y354330D02*
Y376682D01*
X410271Y349311D02*
X415290Y354330D01*
X410271Y326259D02*
Y349311D01*
Y326259D02*
X415220Y321310D01*
X436118Y300412D01*
Y291338D02*
Y300412D01*
Y291338D02*
X441198Y286258D01*
Y281172D02*
Y286258D01*
X436433Y276408D02*
X441198Y281172D01*
X436433Y274697D02*
Y276408D01*
X400050Y236298D02*
Y248191D01*
Y236298D02*
X402590Y233758D01*
Y208280D02*
Y233758D01*
X305308Y236220D02*
X308610Y232918D01*
X352806D01*
X356715Y236827D01*
Y245717D01*
X388112Y277114D01*
X410567D01*
X422292Y288839D01*
X505421Y193841D02*
Y207011D01*
Y193841D02*
X514096Y185166D01*
X349758Y246380D02*
Y258318D01*
X348048Y244670D02*
X349758Y246380D01*
X337310Y244670D02*
X348048D01*
X478790Y218440D02*
X486410Y226060D01*
Y237743D01*
X511810Y263144D01*
X519430D01*
X523748Y267462D01*
Y278130D01*
X520936Y280942D02*
X523748Y278130D01*
X515620Y280942D02*
X520936D01*
X513588Y282974D02*
X515620Y280942D01*
X513588Y282974D02*
Y293653D01*
X507795Y299446D02*
X513588Y293653D01*
X450576Y247904D02*
Y260555D01*
X500421Y242964D02*
X505186Y247730D01*
X400050Y253191D02*
X402590D01*
X405892Y256493D01*
Y258297D01*
X429363Y281768D01*
X478790Y205740D02*
Y213106D01*
X454932Y236964D02*
X478790Y213106D01*
X442346Y236964D02*
X454932D01*
X433832Y245477D02*
X442346Y236964D01*
X433832Y245477D02*
Y266707D01*
X438287Y271162D01*
X439969D01*
X305308Y224282D02*
X312503Y217087D01*
X394970D01*
X397590Y214467D01*
Y208280D02*
Y214467D01*
X483870Y130890D02*
X486410Y133430D01*
Y169459D01*
X458511Y197358D02*
X486410Y169459D01*
X503174Y106680D02*
X554430D01*
X478964Y130890D02*
X503174Y106680D01*
X473710Y130890D02*
X478964D01*
X487426Y205740D02*
X499110Y194056D01*
Y132220D02*
Y194056D01*
Y132220D02*
X501650Y129680D01*
X554430D01*
X463550Y121666D02*
Y130850D01*
X461010Y119126D02*
X463550Y121666D01*
X461010Y110280D02*
Y119126D01*
X290830Y518160D02*
X317500D01*
X287020Y514350D02*
X290830Y518160D01*
X287020Y487680D02*
Y514350D01*
X132842Y492560D02*
X137842D01*
X90170Y543560D02*
X132842Y500888D01*
X593090Y576580D02*
X670560D01*
X590550Y574040D02*
X593090Y576580D01*
X590550Y441960D02*
Y464820D01*
Y441960D02*
X591820Y440690D01*
Y416480D02*
Y440690D01*
X670560Y415290D02*
Y525780D01*
X666750Y411480D02*
X670560Y415290D01*
X591820Y411480D02*
X666750D01*
X497260Y81280D02*
Y87884D01*
X485260Y91574D02*
X488950Y87884D01*
X485260Y91574D02*
Y108380D01*
X424760Y99386D02*
X427990Y102616D01*
X424760Y81280D02*
Y99386D01*
X572690Y337700D02*
Y345440D01*
X570271Y335280D02*
X572690Y337700D01*
X570271Y327661D02*
Y335280D01*
X591820Y331470D02*
Y411480D01*
X588011Y327661D02*
X591820Y331470D01*
X575271Y327661D02*
X588011D01*
X166370Y389890D02*
Y541020D01*
X193040Y567690D01*
X848360Y128270D02*
Y389890D01*
Y128270D02*
X873760Y102870D01*
X474010Y97074D02*
Y110280D01*
X471170Y94234D02*
X474010Y97074D01*
X440316Y94234D02*
X471170D01*
X436760Y97790D02*
X440316Y94234D01*
X448010Y101138D02*
Y110280D01*
Y101138D02*
X449580Y99568D01*
X466090D01*
X467510Y100988D01*
Y110280D01*
X526910Y83680D02*
X554430D01*
X524510Y81280D02*
X526910Y83680D01*
X497260Y81280D02*
X524510D01*
X492507Y207011D02*
X500421D01*
X491236Y205740D02*
X492507Y207011D01*
X402590Y194310D02*
Y208280D01*
X454660Y120546D02*
Y130890D01*
X454510Y120396D02*
X454660Y120546D01*
X454510Y110280D02*
Y120396D01*
X468416Y135890D02*
X473710D01*
X468376Y135850D02*
X468416Y135890D01*
X463550Y135850D02*
X468376D01*
D19*
X427970Y308610D02*
G03*
X427970Y308610I-5000J0D01*
G01*
X459740Y259112D02*
X509238Y308610D01*
X410243D02*
X459740Y358108D01*
X509238Y308610D01*
X410243D02*
X459740Y259112D01*
X564430Y73180D02*
X601430D01*
X564430Y140180D02*
X601430D01*
Y73180D02*
Y140180D01*
X564430Y73180D02*
Y140180D01*
X459740Y236768D02*
X531582Y308610D01*
X387898D02*
X459740Y380452D01*
X531582Y308610D01*
X387898D02*
X459740Y236768D01*
X582930Y101680D02*
Y111680D01*
X577930Y106680D02*
X587930D01*
X542930Y72180D02*
X622930D01*
X542930Y141180D02*
X622930D01*
Y72180D02*
Y141180D01*
X542930Y72180D02*
Y141180D01*
X461010Y76200D02*
Y86360D01*
X455930Y81280D02*
X466090D01*
D20*
X448678Y587462D02*
G03*
X448678Y587462I-762J0D01*
G01*
X446790Y574092D02*
G03*
X446790Y574092I-762J0D01*
G01*
X466296Y573946D02*
G03*
X466296Y573946I-762J0D01*
G01*
X464608Y587343D02*
G03*
X464608Y587343I-762J0D01*
G01*
X455883Y587712D02*
G03*
X464756Y589656I563J18652D01*
G01*
X468332Y573904D02*
G03*
X464756Y589656I-34222J512D01*
G01*
X466143Y571215D02*
G03*
X468332Y573904I-609J2731D01*
G01*
X461236Y573186D02*
G03*
X466143Y571215I3890J2593D01*
G01*
X447042Y589788D02*
G03*
X455883Y587712I8558J16582D01*
G01*
X447042Y589788D02*
G03*
X443230Y574092I30414J-15696D01*
G01*
D02*
G03*
X445378Y571371I2798J0D01*
G01*
D02*
G03*
X450314Y573267I1085J4547D01*
G01*
X455775D02*
X461236Y573186D01*
X450314Y573267D02*
X455775D01*
X454100Y625024D02*
G03*
X803395Y701537I22172J734335D01*
G01*
X944190Y81400D02*
G03*
X803395Y701537I-1347306J20160D01*
G01*
X858013Y-24466D02*
G03*
X944190Y81400I-23963J107514D01*
G01*
X664831Y53097D02*
G03*
X858013Y-24466I153145J102073D01*
G01*
X105988Y706755D02*
G03*
X454100Y625024I336929J652854D01*
G01*
X105988Y706755D02*
G03*
X-44070Y88794I1197399J-617961D01*
G01*
X-44070D02*
G03*
X40514Y-18350I110153J0D01*
G01*
Y-18350D02*
G03*
X234835Y56314I42720J179018D01*
G01*
X449845Y56314D02*
X664831Y53097D01*
X234835Y56314D02*
X449845D01*
D21*
X463240Y308610D02*
G03*
X463240Y308610I-3500J0D01*
G01*
X181300Y492760D02*
G03*
X181300Y492760I-3500J0D01*
G01*
X594050Y477520D02*
G03*
X594050Y477520I-3500J0D01*
G01*
X590240Y236220D02*
G03*
X590240Y236220I-3500J0D01*
G01*
X290520Y474980D02*
G03*
X290520Y474980I-3500J0D01*
G01*
X456204Y312146D02*
X463275Y305075D01*
X456205D02*
X463276Y312146D01*
X177800Y487760D02*
Y497760D01*
X172800Y492760D02*
X182800D01*
X585550Y477520D02*
X595550D01*
X590550Y472520D02*
Y482520D01*
X583205Y232685D02*
X590276Y239756D01*
X583205Y239755D02*
X590276Y232684D01*
X282020Y474980D02*
X292020D01*
X287020Y469980D02*
Y479980D01*
D22*
X574041Y327661D02*
G03*
X574041Y327661I-1270J0D01*
G01*
X571460Y345440D02*
G03*
X571460Y345440I-1270J0D01*
G01*
X401360Y194310D02*
G03*
X401360Y194310I-1270J0D01*
G01*
X518120Y346710D02*
G03*
X518120Y346710I-1270J0D01*
G01*
X482560Y205740D02*
G03*
X482560Y205740I-1270J0D01*
G01*
X542330Y327660D02*
G03*
X542330Y327660I-1270J0D01*
G01*
X543600Y345440D02*
G03*
X543600Y345440I-1270J0D01*
G01*
X455930Y133390D02*
G03*
X455930Y133390I-1270J0D01*
G01*
X464820Y133350D02*
G03*
X464820Y133350I-1270J0D01*
G01*
X504191Y207011D02*
G03*
X504191Y207011I-1270J0D01*
G01*
X401360Y208280D02*
G03*
X401360Y208280I-1270J0D01*
G01*
X462281Y205741D02*
G03*
X462281Y205741I-1270J0D01*
G01*
X474980Y133390D02*
G03*
X474980Y133390I-1270J0D01*
G01*
X519430Y250230D02*
G03*
X519430Y250230I-1270J0D01*
G01*
X593090Y413980D02*
G03*
X593090Y413980I-1270J0D01*
G01*
X401320Y250690D02*
G03*
X401320Y250690I-1270J0D01*
G01*
X318770Y520660D02*
G03*
X318770Y520660I-1270J0D01*
G01*
X572771Y325661D02*
Y329661D01*
X570770Y327661D02*
X574771D01*
X568190Y345440D02*
X572190D01*
X570190Y343440D02*
Y347440D01*
X400090Y192310D02*
Y196310D01*
X398090Y194310D02*
X402090D01*
X516850Y344710D02*
Y348710D01*
X514850Y346710D02*
X518850D01*
X481290Y203740D02*
Y207740D01*
X479290Y205740D02*
X483290D01*
X539060Y327660D02*
X543060D01*
X541060Y325660D02*
Y329660D01*
X540330Y345440D02*
X544330D01*
X542330Y343440D02*
Y347440D01*
X454660Y131390D02*
Y135390D01*
X452660Y133390D02*
X456660D01*
X463550Y131350D02*
Y135350D01*
X461550Y133350D02*
X465550D01*
X502921Y205011D02*
Y209011D01*
X500921Y207011D02*
X504921D01*
X400090Y206280D02*
Y210280D01*
X398090Y208280D02*
X402090D01*
X461011Y203741D02*
Y207741D01*
X459011Y205741D02*
X463011D01*
X473710Y131390D02*
Y135390D01*
X471710Y133390D02*
X475710D01*
X516160Y250230D02*
X520160D01*
X518160Y248230D02*
Y252230D01*
X591820Y411980D02*
Y415980D01*
X589820Y413980D02*
X593820D01*
X398050Y250691D02*
X402050D01*
X400050Y248691D02*
Y252691D01*
X317500Y518660D02*
Y522660D01*
X315500Y520660D02*
X319500D01*
D23*
X411685Y317774D02*
D03*
X415220Y321310D02*
D03*
X418756Y324845D02*
D03*
X422292Y328381D02*
D03*
X425827Y331917D02*
D03*
X429363Y335452D02*
D03*
X432898Y338987D02*
D03*
X436433Y342523D02*
D03*
X439969Y346058D02*
D03*
X443505Y349594D02*
D03*
X447040Y353130D02*
D03*
X450576Y356665D02*
D03*
X507795Y299446D02*
D03*
X504260Y295910D02*
D03*
X500724Y292375D02*
D03*
X497188Y288839D02*
D03*
X493653Y285304D02*
D03*
X490117Y281768D02*
D03*
X486582Y278233D02*
D03*
X483046Y274697D02*
D03*
X479511Y271162D02*
D03*
X475975Y267626D02*
D03*
X472440Y264090D02*
D03*
X468904Y260555D02*
D03*
D24*
Y356665D02*
D03*
X472440Y353130D02*
D03*
X475975Y349594D02*
D03*
X479511Y346058D02*
D03*
X483046Y342523D02*
D03*
X486582Y338987D02*
D03*
X490117Y335452D02*
D03*
X493653Y331917D02*
D03*
X497188Y328381D02*
D03*
X500724Y324845D02*
D03*
X504260Y321310D02*
D03*
X507795Y317774D02*
D03*
X450576Y260555D02*
D03*
X447040Y264090D02*
D03*
X443505Y267626D02*
D03*
X439969Y271162D02*
D03*
X436433Y274697D02*
D03*
X432898Y278233D02*
D03*
X429363Y281768D02*
D03*
X425827Y285304D02*
D03*
X422292Y288839D02*
D03*
X418756Y292375D02*
D03*
X415220Y295910D02*
D03*
X411685Y299446D02*
D03*
D25*
X570271Y327661D02*
D03*
X575271D02*
D03*
X567690Y345440D02*
D03*
X572690D02*
D03*
X397590Y194310D02*
D03*
X402590D02*
D03*
X514350Y346710D02*
D03*
X519350D02*
D03*
X478790Y205740D02*
D03*
X483790D02*
D03*
X543560Y327660D02*
D03*
X538560D02*
D03*
X539830Y345440D02*
D03*
X544830D02*
D03*
X500421Y207011D02*
D03*
X505421D02*
D03*
X402590Y208280D02*
D03*
X397590D02*
D03*
X458511Y205741D02*
D03*
X463511D02*
D03*
D26*
X611430Y106680D02*
D03*
D27*
X554430Y83680D02*
D03*
Y106680D02*
D03*
Y129680D02*
D03*
D28*
X217170Y492760D02*
D03*
X137842Y492560D02*
D03*
D29*
X467510Y110280D02*
D03*
X474010D02*
D03*
X448010D02*
D03*
X461010D02*
D03*
X454510D02*
D03*
D30*
X454660Y130890D02*
D03*
Y135890D02*
D03*
X463550Y130850D02*
D03*
Y135850D02*
D03*
X473710Y130890D02*
D03*
Y135890D02*
D03*
X518160Y252730D02*
D03*
Y247730D02*
D03*
X591820Y411480D02*
D03*
Y416480D02*
D03*
X400050Y253191D02*
D03*
Y248191D02*
D03*
X317500Y518160D02*
D03*
Y523160D02*
D03*
D31*
X337310Y244670D02*
D03*
Y189670D02*
D03*
X305310D02*
D03*
Y244670D02*
D03*
D32*
X590550Y464820D02*
D03*
X287020Y487680D02*
D03*
D33*
X590550Y490220D02*
D03*
X287020Y462280D02*
D03*
D56*
X443510Y593090D02*
D03*
Y567690D02*
D03*
X468910Y593090D02*
D03*
Y567690D02*
D03*
X494310D02*
D03*
X418110Y593090D02*
D03*
Y567690D02*
D03*
X670560Y525780D02*
D03*
X695960D02*
D03*
X670560Y551180D02*
D03*
X695960D02*
D03*
Y576580D02*
D03*
D57*
X494310Y593090D02*
D03*
D58*
X873760Y102870D02*
D03*
X90170Y568960D02*
D03*
D59*
X873760Y128270D02*
D03*
Y153670D02*
D03*
Y179070D02*
D03*
X444500Y481330D02*
D03*
X469900D02*
D03*
X495300D02*
D03*
X243840Y567690D02*
D03*
X218440D02*
D03*
X193040D02*
D03*
X848360Y389890D02*
D03*
X772160D02*
D03*
X797560D02*
D03*
X822960D02*
D03*
X191770D02*
D03*
X115570D02*
D03*
X140970D02*
D03*
X166370D02*
D03*
X90170Y543560D02*
D03*
D60*
X424760Y81280D02*
D03*
X497260D02*
D03*
D61*
X485260Y108380D02*
D03*
X436760D02*
D03*
D62*
X670560Y576580D02*
D03*
D63*
X603711Y253191D02*
D03*
X569769Y219249D02*
D03*
D64*
X419100Y481330D02*
D03*
X269240Y567690D02*
D03*
X746760Y389890D02*
D03*
X90170D02*
D03*
D65*
X514350Y408550D02*
D03*
X584200Y318770D02*
D03*
X532638Y338836D02*
D03*
X424180Y360426D02*
D03*
X421132Y260858D02*
D03*
X567690Y354076D02*
D03*
X387350Y208026D02*
D03*
X397002Y263398D02*
D03*
X518661Y219249D02*
D03*
X451358Y305308D02*
D03*
X474726Y301028D02*
D03*
X473456Y286512D02*
D03*
X501396Y372364D02*
D03*
X446995Y212643D02*
D03*
X472440Y232410D02*
D03*
X473710Y168148D02*
D03*
X529082D02*
D03*
X518922Y313182D02*
D03*
X492506Y354584D02*
D03*
X378714Y465328D02*
D03*
Y305308D02*
D03*
X500888Y269748D02*
D03*
X397510Y295910D02*
D03*
X514858Y272034D02*
D03*
X388620Y337566D02*
D03*
X484378Y319786D02*
D03*
X837184Y408178D02*
D03*
X485864Y413512D02*
D03*
X347980Y381000D02*
D03*
X546700Y386080D02*
D03*
X243840Y500634D02*
D03*
X494792Y399288D02*
D03*
X537974Y580896D02*
D03*
X344932Y355854D02*
D03*
X468884Y328168D02*
D03*
X863210Y417440D02*
D03*
X435610Y416560D02*
D03*
X676402Y402082D02*
D03*
X463511Y214884D02*
D03*
X500380Y216154D02*
D03*
X746760Y243078D02*
D03*
X393700Y224790D02*
D03*
X488950Y302006D02*
D03*
X556260Y334010D02*
D03*
X537718Y317754D02*
D03*
X549910Y360934D02*
D03*
X510540Y440690D02*
D03*
X166370Y147066D02*
D03*
X374650Y246380D02*
D03*
X406400Y358648D02*
D03*
X468904Y376073D02*
D03*
X514096Y185166D02*
D03*
X349758Y258318D02*
D03*
X590550Y562610D02*
D03*
X450576Y247904D02*
D03*
D66*
X786130Y656590D02*
D03*
X886460Y46990D02*
D03*
X-1270Y60960D02*
D03*
X125730Y656590D02*
D03*
M02*
