G04*
G04 #@! TF.GenerationSoftware,Altium Limited,Altium Designer,19.0.4 (130)*
G04*
G04 Layer_Physical_Order=2*
G04 Layer_Color=16711680*
%FSLAX44Y44*%
%MOMM*%
G71*
G01*
G75*
%ADD16C,0.2540*%
%ADD19C,0.1000*%
%ADD20C,0.0127*%
%ADD21C,0.0500*%
%ADD22C,0.0254*%
%ADD56C,1.6000*%
%ADD57R,1.6000X1.6000*%
%ADD58R,1.7000X1.7000*%
%ADD59C,1.7000*%
%ADD60R,1.5000X2.0000*%
%ADD61R,0.8000X1.0000*%
%ADD62R,1.6000X1.6000*%
%ADD63C,1.3000*%
%ADD64R,1.7000X1.7000*%
%ADD65C,1.2700*%
%ADD66C,2.0000*%
D16*
X503867Y390398D02*
X524441Y410972D01*
X405638Y272542D02*
X439166Y239014D01*
X524441Y410972D02*
X682870D01*
X516772D02*
X524441D01*
X486410Y525780D02*
X514350D01*
X483616Y580390D02*
Y582396D01*
Y528574D02*
Y580390D01*
X384810Y267462D02*
Y272796D01*
Y215978D02*
Y267462D01*
Y210566D02*
Y215978D01*
X423825Y376073D02*
X433832Y386080D01*
X406400Y358648D02*
X423825Y376073D01*
X78994Y557784D02*
X90170Y568960D01*
X78994Y521970D02*
Y557784D01*
Y521970D02*
X82042Y518922D01*
X144272D01*
X193040Y567690D01*
X685292Y408550D02*
X804300D01*
X335280Y390398D02*
X503867D01*
X321564Y404114D02*
X335280Y390398D01*
X180594Y404114D02*
X321564D01*
X166370Y389890D02*
X180594Y404114D01*
X804300Y408550D02*
X822960Y389890D01*
X682870Y410972D02*
X685292Y408550D01*
X514350D02*
X516772Y410972D01*
X734060Y318770D02*
X873760Y179070D01*
X584200Y318770D02*
X734060D01*
X531368Y340106D02*
X532638Y338836D01*
X531368Y340106D02*
Y369570D01*
X519652Y381286D02*
X531368Y369570D01*
X492029Y381286D02*
X519652D01*
X471170Y360426D02*
X492029Y381286D01*
X424180Y360426D02*
X471170D01*
X206248Y579882D02*
X218440Y567690D01*
X126492Y579882D02*
X206248D01*
X90170Y543560D02*
X126492Y579882D01*
X218440Y567690D02*
X231140Y580390D01*
X483616D01*
X494310Y593090D01*
X387350Y208026D02*
Y213438D01*
X384810Y215978D02*
X387350Y213438D01*
X384810Y272796D02*
X389890Y277876D01*
X404114D01*
X421132Y260858D01*
X567690Y354076D02*
X572770Y348996D01*
Y282829D02*
Y348996D01*
X538099Y248158D02*
X572770Y282829D01*
X468630Y248158D02*
X538099D01*
X459486Y239014D02*
X468630Y248158D01*
X439166Y239014D02*
X459486D01*
X389890Y272542D02*
X405638D01*
X384810Y267462D02*
X389890Y272542D01*
X384810Y210566D02*
X387350Y208026D01*
X518661Y219249D02*
X569769D01*
X491841Y244348D02*
X518661Y219249D01*
X470358Y244348D02*
X491841D01*
X461214Y235204D02*
X470358Y244348D01*
X425196Y235204D02*
X461214D01*
X397002Y263398D02*
X425196Y235204D01*
X140970Y389890D02*
X146948Y383912D01*
Y374650D02*
Y383912D01*
Y374650D02*
X205368Y316230D01*
X440436D01*
X451358Y305308D01*
X474726Y301028D02*
X484924Y290830D01*
X558800D01*
X565150Y297180D01*
Y337820D01*
X558800Y344170D02*
X565150Y337820D01*
X558800Y344170D02*
Y364490D01*
X569350Y375040D01*
X782710D01*
X797560Y389890D01*
X772160Y380120D02*
Y389890D01*
X770890Y378850D02*
X772160Y380120D01*
X552840Y378850D02*
X770890D01*
X541020Y367030D02*
X552840Y378850D01*
X541020Y352642D02*
Y367030D01*
Y352642D02*
X541528Y352134D01*
Y334518D02*
Y352134D01*
X528828Y321818D02*
X541528Y334518D01*
X528828Y308610D02*
Y321818D01*
X524510Y304292D02*
X528828Y308610D01*
X508254Y304292D02*
X524510D01*
X501650Y310896D02*
X508254Y304292D01*
X468630Y310896D02*
X501650D01*
X465836Y308102D02*
X468630Y310896D01*
X465836Y294132D02*
Y308102D01*
Y294132D02*
X473456Y286512D01*
X90170Y389890D02*
X99060D01*
X110236Y378714D01*
X123190D01*
X126746Y382270D01*
Y397510D01*
X130302Y401066D01*
X149860D01*
X153416Y397510D01*
Y382778D02*
Y397510D01*
Y382778D02*
X159766Y376428D01*
X337566D01*
X364490Y349504D01*
X467106D01*
X489966Y372364D01*
X501396D01*
X446995Y212643D02*
X466763Y232410D01*
X472440D01*
X473710Y168148D02*
X529082D01*
X518922Y313182D02*
X520192Y314452D01*
Y326898D01*
X492506Y354584D02*
X520192Y326898D01*
X468910Y555524D02*
Y567690D01*
X378714Y465328D02*
X468910Y555524D01*
X378714Y305308D02*
X425958D01*
X461518Y269748D01*
X500888D01*
X397510Y295910D02*
X411988D01*
X447802Y260096D01*
X512064D01*
X514858Y262890D01*
Y272034D01*
X388620Y337566D02*
X481330D01*
X484378Y334518D01*
Y319786D02*
Y334518D01*
X831732Y413630D02*
X837184Y408178D01*
X690254Y413630D02*
X831732D01*
X686444Y417440D02*
X690254Y413630D01*
X489793Y417440D02*
X686444D01*
X485864Y413512D02*
X489793Y417440D01*
X347980Y381000D02*
X406400D01*
Y358648D02*
Y381000D01*
X433832Y386080D02*
X546700D01*
X243840Y500634D02*
X345186Y399288D01*
X494792D01*
X418110Y593090D02*
Y601980D01*
X419888Y603758D01*
X515112D01*
X537974Y580896D01*
X344932Y355854D02*
X379730Y321056D01*
X461772D01*
X468884Y328168D01*
X694064Y417440D02*
X863210D01*
X689102Y422402D02*
X694064Y417440D01*
X441452Y422402D02*
X689102D01*
X435610Y416560D02*
X441452Y422402D01*
X676402Y402082D02*
X803656D01*
X811022Y394716D01*
Y379730D02*
Y394716D01*
Y379730D02*
X813562Y377190D01*
X835660D01*
X848360Y389890D01*
X463511Y214884D02*
X464781Y216154D01*
X500380D01*
X647954Y243078D02*
X746760D01*
X628142Y262890D02*
X647954Y243078D01*
X581406Y262890D02*
X628142D01*
X578866Y260350D02*
X581406Y262890D01*
X578866Y205994D02*
Y260350D01*
X575310Y202438D02*
X578866Y205994D01*
X416052Y202438D02*
X575310D01*
X393700Y224790D02*
X416052Y202438D01*
X488950Y301752D02*
Y302006D01*
Y301752D02*
X491490Y299212D01*
X549910D01*
X556260Y305562D01*
Y334010D01*
X537718Y317754D02*
X542290D01*
X545338Y320802D01*
Y356362D01*
X549910Y360934D01*
X469900Y481330D02*
X510540Y440690D01*
X166370Y147066D02*
X373198D01*
X424760Y95504D01*
Y81280D02*
Y95504D01*
X483616Y528574D02*
X486410Y525780D01*
X483616Y582396D02*
X494310Y593090D01*
X374650Y199898D02*
Y246380D01*
Y199898D02*
X377190Y197358D01*
X582930D01*
X585724Y200152D01*
Y235204D01*
X603711Y253191D01*
X423825Y376073D02*
X468904D01*
X353822Y185166D02*
X514096D01*
X349758Y189230D02*
X353822Y185166D01*
X349758Y189230D02*
Y258318D01*
X585470Y567690D02*
X590550Y562610D01*
X494310Y567690D02*
X585470D01*
X102870Y402590D02*
X115570Y389890D01*
X81534Y402590D02*
X102870D01*
X78994Y400050D02*
X81534Y402590D01*
X78994Y354330D02*
Y400050D01*
Y354330D02*
X146457Y286867D01*
X411613D01*
X450576Y247904D01*
X469900Y481330D02*
X514350Y525780D01*
X670560D01*
X695960D01*
X670560Y576580D02*
X695960D01*
D19*
X427970Y308610D02*
G03*
X427970Y308610I-5000J0D01*
G01*
X459740Y259112D02*
X509238Y308610D01*
X410243D02*
X459740Y358108D01*
X509238Y308610D01*
X410243D02*
X459740Y259112D01*
X564430Y73180D02*
X601430D01*
X564430Y140180D02*
X601430D01*
Y73180D02*
Y140180D01*
X564430Y73180D02*
Y140180D01*
X459740Y236768D02*
X531582Y308610D01*
X387898D02*
X459740Y380452D01*
X531582Y308610D01*
X387898D02*
X459740Y236768D01*
X582930Y101680D02*
Y111680D01*
X577930Y106680D02*
X587930D01*
X542930Y72180D02*
X622930D01*
X542930Y141180D02*
X622930D01*
Y72180D02*
Y141180D01*
X542930Y72180D02*
Y141180D01*
X461010Y76200D02*
Y86360D01*
X455930Y81280D02*
X466090D01*
D20*
X448678Y587462D02*
G03*
X448678Y587462I-762J0D01*
G01*
X446790Y574092D02*
G03*
X446790Y574092I-762J0D01*
G01*
X466296Y573946D02*
G03*
X466296Y573946I-762J0D01*
G01*
X464608Y587343D02*
G03*
X464608Y587343I-762J0D01*
G01*
X455883Y587712D02*
G03*
X464756Y589656I563J18652D01*
G01*
X468332Y573904D02*
G03*
X464756Y589656I-34222J512D01*
G01*
X466143Y571215D02*
G03*
X468332Y573904I-609J2731D01*
G01*
X461236Y573186D02*
G03*
X466143Y571215I3890J2593D01*
G01*
X447042Y589788D02*
G03*
X455883Y587712I8558J16582D01*
G01*
X447042Y589788D02*
G03*
X443230Y574092I30414J-15696D01*
G01*
D02*
G03*
X445378Y571371I2798J0D01*
G01*
D02*
G03*
X450314Y573267I1085J4547D01*
G01*
X455775D02*
X461236Y573186D01*
X450314Y573267D02*
X455775D01*
X454100Y625024D02*
G03*
X803395Y701537I22172J734335D01*
G01*
X944190Y81400D02*
G03*
X803395Y701537I-1347306J20160D01*
G01*
X858013Y-24466D02*
G03*
X944190Y81400I-23963J107514D01*
G01*
X664831Y53097D02*
G03*
X858013Y-24466I153145J102073D01*
G01*
X105988Y706755D02*
G03*
X454100Y625024I336929J652854D01*
G01*
X105988Y706755D02*
G03*
X-44070Y88794I1197399J-617961D01*
G01*
X-44070D02*
G03*
X40514Y-18350I110153J0D01*
G01*
Y-18350D02*
G03*
X234835Y56314I42720J179018D01*
G01*
X449845Y56314D02*
X664831Y53097D01*
X234835Y56314D02*
X449845D01*
D21*
X463240Y308610D02*
G03*
X463240Y308610I-3500J0D01*
G01*
X181300Y492760D02*
G03*
X181300Y492760I-3500J0D01*
G01*
X594050Y477520D02*
G03*
X594050Y477520I-3500J0D01*
G01*
X590240Y236220D02*
G03*
X590240Y236220I-3500J0D01*
G01*
X290520Y474980D02*
G03*
X290520Y474980I-3500J0D01*
G01*
X456204Y312146D02*
X463275Y305075D01*
X456205D02*
X463276Y312146D01*
X177800Y487760D02*
Y497760D01*
X172800Y492760D02*
X182800D01*
X585550Y477520D02*
X595550D01*
X590550Y472520D02*
Y482520D01*
X583205Y232685D02*
X590276Y239756D01*
X583205Y239755D02*
X590276Y232684D01*
X282020Y474980D02*
X292020D01*
X287020Y469980D02*
Y479980D01*
D22*
X574041Y327661D02*
G03*
X574041Y327661I-1270J0D01*
G01*
X571460Y345440D02*
G03*
X571460Y345440I-1270J0D01*
G01*
X401360Y194310D02*
G03*
X401360Y194310I-1270J0D01*
G01*
X518120Y346710D02*
G03*
X518120Y346710I-1270J0D01*
G01*
X482560Y205740D02*
G03*
X482560Y205740I-1270J0D01*
G01*
X542330Y327660D02*
G03*
X542330Y327660I-1270J0D01*
G01*
X543600Y345440D02*
G03*
X543600Y345440I-1270J0D01*
G01*
X455930Y133390D02*
G03*
X455930Y133390I-1270J0D01*
G01*
X464820Y133350D02*
G03*
X464820Y133350I-1270J0D01*
G01*
X504191Y207011D02*
G03*
X504191Y207011I-1270J0D01*
G01*
X401360Y208280D02*
G03*
X401360Y208280I-1270J0D01*
G01*
X462281Y205741D02*
G03*
X462281Y205741I-1270J0D01*
G01*
X474980Y133390D02*
G03*
X474980Y133390I-1270J0D01*
G01*
X519430Y250230D02*
G03*
X519430Y250230I-1270J0D01*
G01*
X593090Y413980D02*
G03*
X593090Y413980I-1270J0D01*
G01*
X401320Y250690D02*
G03*
X401320Y250690I-1270J0D01*
G01*
X318770Y520660D02*
G03*
X318770Y520660I-1270J0D01*
G01*
X572771Y325661D02*
Y329661D01*
X570770Y327661D02*
X574771D01*
X568190Y345440D02*
X572190D01*
X570190Y343440D02*
Y347440D01*
X400090Y192310D02*
Y196310D01*
X398090Y194310D02*
X402090D01*
X516850Y344710D02*
Y348710D01*
X514850Y346710D02*
X518850D01*
X481290Y203740D02*
Y207740D01*
X479290Y205740D02*
X483290D01*
X539060Y327660D02*
X543060D01*
X541060Y325660D02*
Y329660D01*
X540330Y345440D02*
X544330D01*
X542330Y343440D02*
Y347440D01*
X454660Y131390D02*
Y135390D01*
X452660Y133390D02*
X456660D01*
X463550Y131350D02*
Y135350D01*
X461550Y133350D02*
X465550D01*
X502921Y205011D02*
Y209011D01*
X500921Y207011D02*
X504921D01*
X400090Y206280D02*
Y210280D01*
X398090Y208280D02*
X402090D01*
X461011Y203741D02*
Y207741D01*
X459011Y205741D02*
X463011D01*
X473710Y131390D02*
Y135390D01*
X471710Y133390D02*
X475710D01*
X516160Y250230D02*
X520160D01*
X518160Y248230D02*
Y252230D01*
X591820Y411980D02*
Y415980D01*
X589820Y413980D02*
X593820D01*
X398050Y250691D02*
X402050D01*
X400050Y248691D02*
Y252691D01*
X317500Y518660D02*
Y522660D01*
X315500Y520660D02*
X319500D01*
D56*
X443510Y593090D02*
D03*
Y567690D02*
D03*
X468910Y593090D02*
D03*
Y567690D02*
D03*
X494310D02*
D03*
X418110Y593090D02*
D03*
Y567690D02*
D03*
X670560Y525780D02*
D03*
X695960D02*
D03*
X670560Y551180D02*
D03*
X695960D02*
D03*
Y576580D02*
D03*
D57*
X494310Y593090D02*
D03*
D58*
X873760Y102870D02*
D03*
X90170Y568960D02*
D03*
D59*
X873760Y128270D02*
D03*
Y153670D02*
D03*
Y179070D02*
D03*
X444500Y481330D02*
D03*
X469900D02*
D03*
X495300D02*
D03*
X243840Y567690D02*
D03*
X218440D02*
D03*
X193040D02*
D03*
X848360Y389890D02*
D03*
X772160D02*
D03*
X797560D02*
D03*
X822960D02*
D03*
X191770D02*
D03*
X115570D02*
D03*
X140970D02*
D03*
X166370D02*
D03*
X90170Y543560D02*
D03*
D60*
X424760Y81280D02*
D03*
X497260D02*
D03*
D61*
X485260Y108380D02*
D03*
X436760D02*
D03*
D62*
X670560Y576580D02*
D03*
D63*
X603711Y253191D02*
D03*
X569769Y219249D02*
D03*
D64*
X419100Y481330D02*
D03*
X269240Y567690D02*
D03*
X746760Y389890D02*
D03*
X90170D02*
D03*
D65*
X514350Y408550D02*
D03*
X584200Y318770D02*
D03*
X532638Y338836D02*
D03*
X424180Y360426D02*
D03*
X421132Y260858D02*
D03*
X567690Y354076D02*
D03*
X387350Y208026D02*
D03*
X397002Y263398D02*
D03*
X518661Y219249D02*
D03*
X451358Y305308D02*
D03*
X474726Y301028D02*
D03*
X473456Y286512D02*
D03*
X501396Y372364D02*
D03*
X446995Y212643D02*
D03*
X472440Y232410D02*
D03*
X473710Y168148D02*
D03*
X529082D02*
D03*
X518922Y313182D02*
D03*
X492506Y354584D02*
D03*
X378714Y465328D02*
D03*
Y305308D02*
D03*
X500888Y269748D02*
D03*
X397510Y295910D02*
D03*
X514858Y272034D02*
D03*
X388620Y337566D02*
D03*
X484378Y319786D02*
D03*
X837184Y408178D02*
D03*
X485864Y413512D02*
D03*
X347980Y381000D02*
D03*
X546700Y386080D02*
D03*
X243840Y500634D02*
D03*
X494792Y399288D02*
D03*
X537974Y580896D02*
D03*
X344932Y355854D02*
D03*
X468884Y328168D02*
D03*
X863210Y417440D02*
D03*
X435610Y416560D02*
D03*
X676402Y402082D02*
D03*
X463511Y214884D02*
D03*
X500380Y216154D02*
D03*
X746760Y243078D02*
D03*
X393700Y224790D02*
D03*
X488950Y302006D02*
D03*
X556260Y334010D02*
D03*
X537718Y317754D02*
D03*
X549910Y360934D02*
D03*
X510540Y440690D02*
D03*
X166370Y147066D02*
D03*
X374650Y246380D02*
D03*
X406400Y358648D02*
D03*
X468904Y376073D02*
D03*
X514096Y185166D02*
D03*
X349758Y258318D02*
D03*
X590550Y562610D02*
D03*
X450576Y247904D02*
D03*
D66*
X786130Y656590D02*
D03*
X886460Y46990D02*
D03*
X-1270Y60960D02*
D03*
X125730Y656590D02*
D03*
M02*
