G04*
G04 #@! TF.GenerationSoftware,Altium Limited,Altium Designer,19.0.4 (130)*
G04*
G04 Layer_Color=16711935*
%FSLAX44Y44*%
%MOMM*%
G71*
G01*
G75*
%ADD19C,0.1000*%
%ADD20C,0.0127*%
%ADD21C,0.0500*%
%ADD22C,0.0254*%
%ADD45C,1.8032*%
%ADD46R,1.8032X1.8032*%
%ADD47R,1.9032X1.9032*%
%ADD48C,1.9032*%
%ADD49R,1.7032X2.2032*%
%ADD50R,1.0032X1.2032*%
%ADD51R,1.8032X1.8032*%
%ADD52C,1.5032*%
%ADD53R,1.9032X1.9032*%
%ADD54C,1.4732*%
%ADD55C,2.2032*%
D19*
X427970Y308610D02*
G03*
X427970Y308610I-5000J0D01*
G01*
X459740Y259112D02*
X509238Y308610D01*
X410243D02*
X459740Y358108D01*
X509238Y308610D01*
X410243D02*
X459740Y259112D01*
X564430Y73180D02*
X601430D01*
X564430Y140180D02*
X601430D01*
Y73180D02*
Y140180D01*
X564430Y73180D02*
Y140180D01*
X459740Y236768D02*
X531582Y308610D01*
X387898D02*
X459740Y380452D01*
X531582Y308610D01*
X387898D02*
X459740Y236768D01*
X582930Y101680D02*
Y111680D01*
X577930Y106680D02*
X587930D01*
X542930Y72180D02*
X622930D01*
X542930Y141180D02*
X622930D01*
Y72180D02*
Y141180D01*
X542930Y72180D02*
Y141180D01*
X461010Y76200D02*
Y86360D01*
X455930Y81280D02*
X466090D01*
D20*
X448678Y587462D02*
G03*
X448678Y587462I-762J0D01*
G01*
X446790Y574092D02*
G03*
X446790Y574092I-762J0D01*
G01*
X466296Y573946D02*
G03*
X466296Y573946I-762J0D01*
G01*
X464608Y587343D02*
G03*
X464608Y587343I-762J0D01*
G01*
X455883Y587712D02*
G03*
X464756Y589656I563J18652D01*
G01*
X468332Y573904D02*
G03*
X464756Y589656I-34222J512D01*
G01*
X466143Y571215D02*
G03*
X468332Y573904I-609J2731D01*
G01*
X461236Y573186D02*
G03*
X466143Y571215I3890J2593D01*
G01*
X447042Y589788D02*
G03*
X455883Y587712I8558J16582D01*
G01*
X447042Y589788D02*
G03*
X443230Y574092I30414J-15696D01*
G01*
D02*
G03*
X445378Y571371I2798J0D01*
G01*
D02*
G03*
X450314Y573267I1085J4547D01*
G01*
X455775D02*
X461236Y573186D01*
X450314Y573267D02*
X455775D01*
X454100Y625024D02*
G03*
X803395Y701537I22172J734335D01*
G01*
X944190Y81400D02*
G03*
X803395Y701537I-1347306J20160D01*
G01*
X858013Y-24466D02*
G03*
X944190Y81400I-23963J107514D01*
G01*
X664831Y53097D02*
G03*
X858013Y-24466I153145J102073D01*
G01*
X105988Y706755D02*
G03*
X454100Y625024I336929J652854D01*
G01*
X105988Y706755D02*
G03*
X-44070Y88794I1197399J-617961D01*
G01*
X-44070D02*
G03*
X40514Y-18350I110153J0D01*
G01*
Y-18350D02*
G03*
X234835Y56314I42720J179018D01*
G01*
X449845Y56314D02*
X664831Y53097D01*
X234835Y56314D02*
X449845D01*
D21*
X463240Y308610D02*
G03*
X463240Y308610I-3500J0D01*
G01*
X181300Y492760D02*
G03*
X181300Y492760I-3500J0D01*
G01*
X594050Y477520D02*
G03*
X594050Y477520I-3500J0D01*
G01*
X590240Y236220D02*
G03*
X590240Y236220I-3500J0D01*
G01*
X290520Y474980D02*
G03*
X290520Y474980I-3500J0D01*
G01*
X456204Y312146D02*
X463275Y305075D01*
X456205D02*
X463276Y312146D01*
X177800Y487760D02*
Y497760D01*
X172800Y492760D02*
X182800D01*
X585550Y477520D02*
X595550D01*
X590550Y472520D02*
Y482520D01*
X583205Y232685D02*
X590276Y239756D01*
X583205Y239755D02*
X590276Y232684D01*
X282020Y474980D02*
X292020D01*
X287020Y469980D02*
Y479980D01*
D22*
X574041Y327661D02*
G03*
X574041Y327661I-1270J0D01*
G01*
X571460Y345440D02*
G03*
X571460Y345440I-1270J0D01*
G01*
X401360Y194310D02*
G03*
X401360Y194310I-1270J0D01*
G01*
X518120Y346710D02*
G03*
X518120Y346710I-1270J0D01*
G01*
X482560Y205740D02*
G03*
X482560Y205740I-1270J0D01*
G01*
X542330Y327660D02*
G03*
X542330Y327660I-1270J0D01*
G01*
X543600Y345440D02*
G03*
X543600Y345440I-1270J0D01*
G01*
X455930Y133390D02*
G03*
X455930Y133390I-1270J0D01*
G01*
X464820Y133350D02*
G03*
X464820Y133350I-1270J0D01*
G01*
X504191Y207011D02*
G03*
X504191Y207011I-1270J0D01*
G01*
X401360Y208280D02*
G03*
X401360Y208280I-1270J0D01*
G01*
X462281Y205741D02*
G03*
X462281Y205741I-1270J0D01*
G01*
X474980Y133390D02*
G03*
X474980Y133390I-1270J0D01*
G01*
X519430Y250230D02*
G03*
X519430Y250230I-1270J0D01*
G01*
X593090Y413980D02*
G03*
X593090Y413980I-1270J0D01*
G01*
X401320Y250690D02*
G03*
X401320Y250690I-1270J0D01*
G01*
X318770Y520660D02*
G03*
X318770Y520660I-1270J0D01*
G01*
X572771Y325661D02*
Y329661D01*
X570770Y327661D02*
X574771D01*
X568190Y345440D02*
X572190D01*
X570190Y343440D02*
Y347440D01*
X400090Y192310D02*
Y196310D01*
X398090Y194310D02*
X402090D01*
X516850Y344710D02*
Y348710D01*
X514850Y346710D02*
X518850D01*
X481290Y203740D02*
Y207740D01*
X479290Y205740D02*
X483290D01*
X539060Y327660D02*
X543060D01*
X541060Y325660D02*
Y329660D01*
X540330Y345440D02*
X544330D01*
X542330Y343440D02*
Y347440D01*
X454660Y131390D02*
Y135390D01*
X452660Y133390D02*
X456660D01*
X463550Y131350D02*
Y135350D01*
X461550Y133350D02*
X465550D01*
X502921Y205011D02*
Y209011D01*
X500921Y207011D02*
X504921D01*
X400090Y206280D02*
Y210280D01*
X398090Y208280D02*
X402090D01*
X461011Y203741D02*
Y207741D01*
X459011Y205741D02*
X463011D01*
X473710Y131390D02*
Y135390D01*
X471710Y133390D02*
X475710D01*
X516160Y250230D02*
X520160D01*
X518160Y248230D02*
Y252230D01*
X591820Y411980D02*
Y415980D01*
X589820Y413980D02*
X593820D01*
X398050Y250691D02*
X402050D01*
X400050Y248691D02*
Y252691D01*
X317500Y518660D02*
Y522660D01*
X315500Y520660D02*
X319500D01*
D45*
X443510Y593090D02*
D03*
Y567690D02*
D03*
X468910Y593090D02*
D03*
Y567690D02*
D03*
X494310D02*
D03*
X418110Y593090D02*
D03*
Y567690D02*
D03*
X670560Y525780D02*
D03*
X695960D02*
D03*
X670560Y551180D02*
D03*
X695960D02*
D03*
Y576580D02*
D03*
D46*
X494310Y593090D02*
D03*
D47*
X873760Y102870D02*
D03*
X90170Y568960D02*
D03*
D48*
X873760Y128270D02*
D03*
Y153670D02*
D03*
Y179070D02*
D03*
X444500Y481330D02*
D03*
X469900D02*
D03*
X495300D02*
D03*
X243840Y567690D02*
D03*
X218440D02*
D03*
X193040D02*
D03*
X848360Y389890D02*
D03*
X772160D02*
D03*
X797560D02*
D03*
X822960D02*
D03*
X191770D02*
D03*
X115570D02*
D03*
X140970D02*
D03*
X166370D02*
D03*
X90170Y543560D02*
D03*
D49*
X424760Y81280D02*
D03*
X497260D02*
D03*
D50*
X485260Y108380D02*
D03*
X436760D02*
D03*
D51*
X670560Y576580D02*
D03*
D52*
X603711Y253191D02*
D03*
X569769Y219249D02*
D03*
D53*
X419100Y481330D02*
D03*
X269240Y567690D02*
D03*
X746760Y389890D02*
D03*
X90170D02*
D03*
D54*
X514350Y408550D02*
D03*
X584200Y318770D02*
D03*
X532638Y338836D02*
D03*
X424180Y360426D02*
D03*
X421132Y260858D02*
D03*
X567690Y354076D02*
D03*
X387350Y208026D02*
D03*
X397002Y263398D02*
D03*
X518661Y219249D02*
D03*
X451358Y305308D02*
D03*
X474726Y301028D02*
D03*
X473456Y286512D02*
D03*
X501396Y372364D02*
D03*
X446995Y212643D02*
D03*
X472440Y232410D02*
D03*
X473710Y168148D02*
D03*
X529082D02*
D03*
X518922Y313182D02*
D03*
X492506Y354584D02*
D03*
X378714Y465328D02*
D03*
Y305308D02*
D03*
X500888Y269748D02*
D03*
X397510Y295910D02*
D03*
X514858Y272034D02*
D03*
X388620Y337566D02*
D03*
X484378Y319786D02*
D03*
X837184Y408178D02*
D03*
X485864Y413512D02*
D03*
X347980Y381000D02*
D03*
X546700Y386080D02*
D03*
X243840Y500634D02*
D03*
X494792Y399288D02*
D03*
X537974Y580896D02*
D03*
X344932Y355854D02*
D03*
X468884Y328168D02*
D03*
X863210Y417440D02*
D03*
X435610Y416560D02*
D03*
X676402Y402082D02*
D03*
X463511Y214884D02*
D03*
X500380Y216154D02*
D03*
X746760Y243078D02*
D03*
X393700Y224790D02*
D03*
X488950Y302006D02*
D03*
X556260Y334010D02*
D03*
X537718Y317754D02*
D03*
X549910Y360934D02*
D03*
X510540Y440690D02*
D03*
X166370Y147066D02*
D03*
X374650Y246380D02*
D03*
X406400Y358648D02*
D03*
X468904Y376073D02*
D03*
X514096Y185166D02*
D03*
X349758Y258318D02*
D03*
X590550Y562610D02*
D03*
X450576Y247904D02*
D03*
D55*
X786130Y656590D02*
D03*
X886460Y46990D02*
D03*
X-1270Y60960D02*
D03*
X125730Y656590D02*
D03*
M02*
