G04*
G04 #@! TF.GenerationSoftware,Altium Limited,Altium Designer,19.0.4 (130)*
G04*
G04 Layer_Color=2752767*
%FSLAX44Y44*%
%MOMM*%
G71*
G01*
G75*
%ADD19C,0.1000*%
%ADD20C,0.0127*%
%ADD21C,0.0500*%
%ADD22C,0.0254*%
%ADD67C,0.0508*%
%ADD68C,0.0677*%
D19*
X427970Y308610D02*
G03*
X427970Y308610I-5000J0D01*
G01*
X459740Y259112D02*
X509238Y308610D01*
X410243D02*
X459740Y358108D01*
X509238Y308610D01*
X410243D02*
X459740Y259112D01*
X564430Y73180D02*
X601430D01*
X564430Y140180D02*
X601430D01*
Y73180D02*
Y140180D01*
X564430Y73180D02*
Y140180D01*
X459740Y236768D02*
X531582Y308610D01*
X387898D02*
X459740Y380452D01*
X531582Y308610D01*
X387898D02*
X459740Y236768D01*
X582930Y101680D02*
Y111680D01*
X577930Y106680D02*
X587930D01*
X542930Y72180D02*
X622930D01*
X542930Y141180D02*
X622930D01*
Y72180D02*
Y141180D01*
X542930Y72180D02*
Y141180D01*
X461010Y76200D02*
Y86360D01*
X455930Y81280D02*
X466090D01*
D20*
X448678Y587462D02*
G03*
X448678Y587462I-762J0D01*
G01*
X446790Y574092D02*
G03*
X446790Y574092I-762J0D01*
G01*
X466296Y573946D02*
G03*
X466296Y573946I-762J0D01*
G01*
X464608Y587343D02*
G03*
X464608Y587343I-762J0D01*
G01*
X455883Y587712D02*
G03*
X464756Y589656I563J18652D01*
G01*
X468332Y573904D02*
G03*
X464756Y589656I-34222J512D01*
G01*
X466143Y571215D02*
G03*
X468332Y573904I-609J2731D01*
G01*
X461236Y573186D02*
G03*
X466143Y571215I3890J2593D01*
G01*
X447042Y589788D02*
G03*
X455883Y587712I8558J16582D01*
G01*
X447042Y589788D02*
G03*
X443230Y574092I30414J-15696D01*
G01*
D02*
G03*
X445378Y571371I2798J0D01*
G01*
D02*
G03*
X450314Y573267I1085J4547D01*
G01*
X455775D02*
X461236Y573186D01*
X450314Y573267D02*
X455775D01*
X454100Y625024D02*
G03*
X803395Y701537I22172J734335D01*
G01*
X944190Y81400D02*
G03*
X803395Y701537I-1347306J20160D01*
G01*
X858013Y-24466D02*
G03*
X944190Y81400I-23963J107514D01*
G01*
X664831Y53097D02*
G03*
X858013Y-24466I153145J102073D01*
G01*
X105988Y706755D02*
G03*
X454100Y625024I336929J652854D01*
G01*
X105988Y706755D02*
G03*
X-44070Y88794I1197399J-617961D01*
G01*
X-44070D02*
G03*
X40514Y-18350I110153J0D01*
G01*
Y-18350D02*
G03*
X234835Y56314I42720J179018D01*
G01*
X449845Y56314D02*
X664831Y53097D01*
X234835Y56314D02*
X449845D01*
D21*
X463240Y308610D02*
G03*
X463240Y308610I-3500J0D01*
G01*
X181300Y492760D02*
G03*
X181300Y492760I-3500J0D01*
G01*
X594050Y477520D02*
G03*
X594050Y477520I-3500J0D01*
G01*
X590240Y236220D02*
G03*
X590240Y236220I-3500J0D01*
G01*
X290520Y474980D02*
G03*
X290520Y474980I-3500J0D01*
G01*
X456204Y312146D02*
X463275Y305075D01*
X456205D02*
X463276Y312146D01*
X177800Y487760D02*
Y497760D01*
X172800Y492760D02*
X182800D01*
X585550Y477520D02*
X595550D01*
X590550Y472520D02*
Y482520D01*
X583205Y232685D02*
X590276Y239756D01*
X583205Y239755D02*
X590276Y232684D01*
X282020Y474980D02*
X292020D01*
X287020Y469980D02*
Y479980D01*
D22*
X574041Y327661D02*
G03*
X574041Y327661I-1270J0D01*
G01*
X571460Y345440D02*
G03*
X571460Y345440I-1270J0D01*
G01*
X401360Y194310D02*
G03*
X401360Y194310I-1270J0D01*
G01*
X518120Y346710D02*
G03*
X518120Y346710I-1270J0D01*
G01*
X482560Y205740D02*
G03*
X482560Y205740I-1270J0D01*
G01*
X542330Y327660D02*
G03*
X542330Y327660I-1270J0D01*
G01*
X543600Y345440D02*
G03*
X543600Y345440I-1270J0D01*
G01*
X455930Y133390D02*
G03*
X455930Y133390I-1270J0D01*
G01*
X464820Y133350D02*
G03*
X464820Y133350I-1270J0D01*
G01*
X504191Y207011D02*
G03*
X504191Y207011I-1270J0D01*
G01*
X401360Y208280D02*
G03*
X401360Y208280I-1270J0D01*
G01*
X462281Y205741D02*
G03*
X462281Y205741I-1270J0D01*
G01*
X474980Y133390D02*
G03*
X474980Y133390I-1270J0D01*
G01*
X519430Y250230D02*
G03*
X519430Y250230I-1270J0D01*
G01*
X593090Y413980D02*
G03*
X593090Y413980I-1270J0D01*
G01*
X401320Y250690D02*
G03*
X401320Y250690I-1270J0D01*
G01*
X318770Y520660D02*
G03*
X318770Y520660I-1270J0D01*
G01*
X572771Y325661D02*
Y329661D01*
X570770Y327661D02*
X574771D01*
X568190Y345440D02*
X572190D01*
X570190Y343440D02*
Y347440D01*
X400090Y192310D02*
Y196310D01*
X398090Y194310D02*
X402090D01*
X516850Y344710D02*
Y348710D01*
X514850Y346710D02*
X518850D01*
X481290Y203740D02*
Y207740D01*
X479290Y205740D02*
X483290D01*
X539060Y327660D02*
X543060D01*
X541060Y325660D02*
Y329660D01*
X540330Y345440D02*
X544330D01*
X542330Y343440D02*
Y347440D01*
X454660Y131390D02*
Y135390D01*
X452660Y133390D02*
X456660D01*
X463550Y131350D02*
Y135350D01*
X461550Y133350D02*
X465550D01*
X502921Y205011D02*
Y209011D01*
X500921Y207011D02*
X504921D01*
X400090Y206280D02*
Y210280D01*
X398090Y208280D02*
X402090D01*
X461011Y203741D02*
Y207741D01*
X459011Y205741D02*
X463011D01*
X473710Y131390D02*
Y135390D01*
X471710Y133390D02*
X475710D01*
X516160Y250230D02*
X520160D01*
X518160Y248230D02*
Y252230D01*
X591820Y411980D02*
Y415980D01*
X589820Y413980D02*
X593820D01*
X398050Y250691D02*
X402050D01*
X400050Y248691D02*
Y252691D01*
X317500Y518660D02*
Y522660D01*
X315500Y520660D02*
X319500D01*
D67*
X441478Y591058D02*
Y595122D01*
X445542D01*
Y591058D01*
X441478D01*
Y565658D02*
Y569722D01*
X445542D01*
Y565658D01*
X441478D01*
X466878Y591058D02*
Y595122D01*
X470942D01*
Y591058D01*
X466878D01*
Y565658D02*
Y569722D01*
X470942D01*
Y565658D01*
X466878D01*
X492278Y591058D02*
Y595122D01*
X496342D01*
Y591058D01*
X492278D01*
Y565658D02*
Y569722D01*
X496342D01*
Y565658D01*
X492278D01*
X416078Y591058D02*
Y595122D01*
X420142D01*
Y591058D01*
X416078D01*
Y565658D02*
Y569722D01*
X420142D01*
Y565658D01*
X416078D01*
X871728Y100838D02*
Y104902D01*
X875792D01*
Y100838D01*
X871728D01*
Y126238D02*
Y130302D01*
X875792D01*
Y126238D01*
X871728D01*
Y151638D02*
Y155702D01*
X875792D01*
Y151638D01*
X871728D01*
Y177038D02*
Y181102D01*
X875792D01*
Y177038D01*
X871728D01*
X485260Y106348D02*
X483228Y110412D01*
X487292D01*
X485260Y106348D01*
X436760D02*
X434728Y110412D01*
X438792D01*
X436760Y106348D01*
X668528Y523748D02*
Y527812D01*
X672592D01*
Y523748D01*
X668528D01*
X693928D02*
Y527812D01*
X697992D01*
Y523748D01*
X693928D01*
X668528Y549148D02*
Y553212D01*
X672592D01*
Y549148D01*
X668528D01*
X693928D02*
Y553212D01*
X697992D01*
Y549148D01*
X693928D01*
X668528Y574548D02*
Y578612D01*
X672592D01*
Y574548D01*
X668528D01*
X693928D02*
Y578612D01*
X697992D01*
Y574548D01*
X693928D01*
X603711Y251159D02*
X604727Y252175D01*
X605743D01*
X604727Y253191D01*
X605743Y254207D01*
X604727D01*
X603711Y255223D01*
X602695Y254207D01*
X601679D01*
X602695Y253191D01*
X601679Y252175D01*
X602695D01*
X603711Y251159D01*
X569769Y217217D02*
X570785Y218233D01*
X571801D01*
X570785Y219249D01*
X571801Y220265D01*
X570785D01*
X569769Y221281D01*
X568753Y220265D01*
X567737D01*
X568753Y219249D01*
X567737Y218233D01*
X568753D01*
X569769Y217217D01*
X417068Y479298D02*
Y483362D01*
X421132D01*
Y479298D01*
X417068D01*
X442468D02*
Y483362D01*
X446532D01*
Y479298D01*
X442468D01*
X467868D02*
Y483362D01*
X471932D01*
Y479298D01*
X467868D01*
X493268D02*
Y483362D01*
X497332D01*
Y479298D01*
X493268D01*
X267208Y565658D02*
Y569722D01*
X271272D01*
Y565658D01*
X267208D01*
X241808D02*
Y569722D01*
X245872D01*
Y565658D01*
X241808D01*
X216408D02*
Y569722D01*
X220472D01*
Y565658D01*
X216408D01*
X191008D02*
Y569722D01*
X195072D01*
Y565658D01*
X191008D01*
X846328Y387858D02*
Y391922D01*
X850392D01*
Y387858D01*
X846328D01*
X744728D02*
Y391922D01*
X748792D01*
Y387858D01*
X744728D01*
X770128D02*
Y391922D01*
X774192D01*
Y387858D01*
X770128D01*
X795528D02*
Y391922D01*
X799592D01*
Y387858D01*
X795528D01*
X820928D02*
Y391922D01*
X824992D01*
Y387858D01*
X820928D01*
X189738D02*
Y391922D01*
X193802D01*
Y387858D01*
X189738D01*
X88138D02*
Y391922D01*
X92202D01*
Y387858D01*
X88138D01*
X113538D02*
Y391922D01*
X117602D01*
Y387858D01*
X113538D01*
X138938D02*
Y391922D01*
X143002D01*
Y387858D01*
X138938D01*
X164338D02*
Y391922D01*
X168402D01*
Y387858D01*
X164338D01*
X88138Y566928D02*
Y570992D01*
X92202D01*
Y566928D01*
X88138D01*
Y541528D02*
Y545592D01*
X92202D01*
Y541528D01*
X88138D01*
X512318Y406518D02*
X513334Y408550D01*
X512318Y410582D01*
X514350Y409566D01*
X516382Y410582D01*
X515366Y408550D01*
X516382Y406518D01*
X514350Y407534D01*
X512318Y406518D01*
X582168Y316738D02*
X583184Y318770D01*
X582168Y320802D01*
X584200Y319786D01*
X586232Y320802D01*
X585216Y318770D01*
X586232Y316738D01*
X584200Y317754D01*
X582168Y316738D01*
X530606Y336804D02*
X531622Y338836D01*
X530606Y340868D01*
X532638Y339852D01*
X534670Y340868D01*
X533654Y338836D01*
X534670Y336804D01*
X532638Y337820D01*
X530606Y336804D01*
X422148Y358394D02*
X423164Y360426D01*
X422148Y362458D01*
X424180Y361442D01*
X426212Y362458D01*
X425196Y360426D01*
X426212Y358394D01*
X424180Y359410D01*
X422148Y358394D01*
X419100Y258826D02*
X420116Y260858D01*
X419100Y262890D01*
X421132Y261874D01*
X423164Y262890D01*
X422148Y260858D01*
X423164Y258826D01*
X421132Y259842D01*
X419100Y258826D01*
X565658Y352044D02*
X566674Y354076D01*
X565658Y356108D01*
X567690Y355092D01*
X569722Y356108D01*
X568706Y354076D01*
X569722Y352044D01*
X567690Y353060D01*
X565658Y352044D01*
X385318Y205994D02*
X386334Y208026D01*
X385318Y210058D01*
X387350Y209042D01*
X389382Y210058D01*
X388366Y208026D01*
X389382Y205994D01*
X387350Y207010D01*
X385318Y205994D01*
X394970Y261366D02*
X395986Y263398D01*
X394970Y265430D01*
X397002Y264414D01*
X399034Y265430D01*
X398018Y263398D01*
X399034Y261366D01*
X397002Y262382D01*
X394970Y261366D01*
X516629Y217217D02*
X517645Y219249D01*
X516629Y221281D01*
X518661Y220265D01*
X520693Y221281D01*
X519677Y219249D01*
X520693Y217217D01*
X518661Y218233D01*
X516629Y217217D01*
X449326Y303276D02*
X450342Y305308D01*
X449326Y307340D01*
X451358Y306324D01*
X453390Y307340D01*
X452374Y305308D01*
X453390Y303276D01*
X451358Y304292D01*
X449326Y303276D01*
X472694Y298996D02*
X473710Y301028D01*
X472694Y303060D01*
X474726Y302044D01*
X476758Y303060D01*
X475742Y301028D01*
X476758Y298996D01*
X474726Y300012D01*
X472694Y298996D01*
X471424Y284480D02*
X472440Y286512D01*
X471424Y288544D01*
X473456Y287528D01*
X475488Y288544D01*
X474472Y286512D01*
X475488Y284480D01*
X473456Y285496D01*
X471424Y284480D01*
X499364Y370332D02*
X500380Y372364D01*
X499364Y374396D01*
X501396Y373380D01*
X503428Y374396D01*
X502412Y372364D01*
X503428Y370332D01*
X501396Y371348D01*
X499364Y370332D01*
X444963Y210611D02*
X445979Y212643D01*
X444963Y214675D01*
X446995Y213659D01*
X449027Y214675D01*
X448011Y212643D01*
X449027Y210611D01*
X446995Y211627D01*
X444963Y210611D01*
X470408Y230378D02*
X471424Y232410D01*
X470408Y234442D01*
X472440Y233426D01*
X474472Y234442D01*
X473456Y232410D01*
X474472Y230378D01*
X472440Y231394D01*
X470408Y230378D01*
X471678Y166116D02*
X472694Y168148D01*
X471678Y170180D01*
X473710Y169164D01*
X475742Y170180D01*
X474726Y168148D01*
X475742Y166116D01*
X473710Y167132D01*
X471678Y166116D01*
X527050D02*
X528066Y168148D01*
X527050Y170180D01*
X529082Y169164D01*
X531114Y170180D01*
X530098Y168148D01*
X531114Y166116D01*
X529082Y167132D01*
X527050Y166116D01*
X516890Y311150D02*
X517906Y313182D01*
X516890Y315214D01*
X518922Y314198D01*
X520954Y315214D01*
X519938Y313182D01*
X520954Y311150D01*
X518922Y312166D01*
X516890Y311150D01*
X490474Y352552D02*
X491490Y354584D01*
X490474Y356616D01*
X492506Y355600D01*
X494538Y356616D01*
X493522Y354584D01*
X494538Y352552D01*
X492506Y353568D01*
X490474Y352552D01*
X376682Y463296D02*
X377698Y465328D01*
X376682Y467360D01*
X378714Y466344D01*
X380746Y467360D01*
X379730Y465328D01*
X380746Y463296D01*
X378714Y464312D01*
X376682Y463296D01*
Y303276D02*
X377698Y305308D01*
X376682Y307340D01*
X378714Y306324D01*
X380746Y307340D01*
X379730Y305308D01*
X380746Y303276D01*
X378714Y304292D01*
X376682Y303276D01*
X498856Y267716D02*
X499872Y269748D01*
X498856Y271780D01*
X500888Y270764D01*
X502920Y271780D01*
X501904Y269748D01*
X502920Y267716D01*
X500888Y268732D01*
X498856Y267716D01*
X395478Y293878D02*
X396494Y295910D01*
X395478Y297942D01*
X397510Y296926D01*
X399542Y297942D01*
X398526Y295910D01*
X399542Y293878D01*
X397510Y294894D01*
X395478Y293878D01*
X512826Y270002D02*
X513842Y272034D01*
X512826Y274066D01*
X514858Y273050D01*
X516890Y274066D01*
X515874Y272034D01*
X516890Y270002D01*
X514858Y271018D01*
X512826Y270002D01*
X386588Y335534D02*
X387604Y337566D01*
X386588Y339598D01*
X388620Y338582D01*
X390652Y339598D01*
X389636Y337566D01*
X390652Y335534D01*
X388620Y336550D01*
X386588Y335534D01*
X482346Y317754D02*
X483362Y319786D01*
X482346Y321818D01*
X484378Y320802D01*
X486410Y321818D01*
X485394Y319786D01*
X486410Y317754D01*
X484378Y318770D01*
X482346Y317754D01*
X835152Y406146D02*
X836168Y408178D01*
X835152Y410210D01*
X837184Y409194D01*
X839216Y410210D01*
X838200Y408178D01*
X839216Y406146D01*
X837184Y407162D01*
X835152Y406146D01*
X483832Y411480D02*
X484848Y413512D01*
X483832Y415544D01*
X485864Y414528D01*
X487896Y415544D01*
X486880Y413512D01*
X487896Y411480D01*
X485864Y412496D01*
X483832Y411480D01*
X345948Y378968D02*
X346964Y381000D01*
X345948Y383032D01*
X347980Y382016D01*
X350012Y383032D01*
X348996Y381000D01*
X350012Y378968D01*
X347980Y379984D01*
X345948Y378968D01*
X544668Y384048D02*
X545684Y386080D01*
X544668Y388112D01*
X546700Y387096D01*
X548732Y388112D01*
X547716Y386080D01*
X548732Y384048D01*
X546700Y385064D01*
X544668Y384048D01*
X241808Y498602D02*
X242824Y500634D01*
X241808Y502666D01*
X243840Y501650D01*
X245872Y502666D01*
X244856Y500634D01*
X245872Y498602D01*
X243840Y499618D01*
X241808Y498602D01*
X492760Y397256D02*
X493776Y399288D01*
X492760Y401320D01*
X494792Y400304D01*
X496824Y401320D01*
X495808Y399288D01*
X496824Y397256D01*
X494792Y398272D01*
X492760Y397256D01*
X535942Y578865D02*
X536958Y580896D01*
X535942Y582929D01*
X537974Y581912D01*
X540005Y582929D01*
X538989Y580896D01*
X540005Y578865D01*
X537974Y579880D01*
X535942Y578865D01*
X342900Y353822D02*
X343916Y355854D01*
X342900Y357886D01*
X344932Y356870D01*
X346964Y357886D01*
X345948Y355854D01*
X346964Y353822D01*
X344932Y354838D01*
X342900Y353822D01*
X466852Y326136D02*
X467868Y328168D01*
X466852Y330200D01*
X468884Y329184D01*
X470916Y330200D01*
X469900Y328168D01*
X470916Y326136D01*
X468884Y327152D01*
X466852Y326136D01*
X861178Y415408D02*
X862194Y417440D01*
X861178Y419472D01*
X863210Y418456D01*
X865242Y419472D01*
X864226Y417440D01*
X865242Y415408D01*
X863210Y416424D01*
X861178Y415408D01*
X433578Y414528D02*
X434594Y416560D01*
X433578Y418592D01*
X435610Y417576D01*
X437642Y418592D01*
X436626Y416560D01*
X437642Y414528D01*
X435610Y415544D01*
X433578Y414528D01*
X674370Y400050D02*
X675386Y402082D01*
X674370Y404114D01*
X676402Y403098D01*
X678434Y404114D01*
X677418Y402082D01*
X678434Y400050D01*
X676402Y401066D01*
X674370Y400050D01*
X461479Y212852D02*
X462495Y214884D01*
X461479Y216916D01*
X463511Y215900D01*
X465543Y216916D01*
X464527Y214884D01*
X465543Y212852D01*
X463511Y213868D01*
X461479Y212852D01*
X498348Y214122D02*
X499364Y216154D01*
X498348Y218186D01*
X500380Y217170D01*
X502412Y218186D01*
X501396Y216154D01*
X502412Y214122D01*
X500380Y215138D01*
X498348Y214122D01*
X744728Y241046D02*
X745744Y243078D01*
X744728Y245110D01*
X746760Y244094D01*
X748792Y245110D01*
X747776Y243078D01*
X748792Y241046D01*
X746760Y242062D01*
X744728Y241046D01*
X391668Y222758D02*
X392684Y224790D01*
X391668Y226822D01*
X393700Y225806D01*
X395732Y226822D01*
X394716Y224790D01*
X395732Y222758D01*
X393700Y223774D01*
X391668Y222758D01*
X486918Y299974D02*
X487934Y302006D01*
X486918Y304038D01*
X488950Y303022D01*
X490982Y304038D01*
X489966Y302006D01*
X490982Y299974D01*
X488950Y300990D01*
X486918Y299974D01*
X554228Y331978D02*
X555244Y334010D01*
X554228Y336042D01*
X556260Y335026D01*
X558292Y336042D01*
X557276Y334010D01*
X558292Y331978D01*
X556260Y332994D01*
X554228Y331978D01*
X535686Y315722D02*
X536702Y317754D01*
X535686Y319786D01*
X537718Y318770D01*
X539750Y319786D01*
X538734Y317754D01*
X539750Y315722D01*
X537718Y316738D01*
X535686Y315722D01*
X547878Y358902D02*
X548894Y360934D01*
X547878Y362966D01*
X549910Y361950D01*
X551942Y362966D01*
X550926Y360934D01*
X551942Y358902D01*
X549910Y359918D01*
X547878Y358902D01*
X508508Y438658D02*
X509524Y440690D01*
X508508Y442722D01*
X510540Y441706D01*
X512572Y442722D01*
X511556Y440690D01*
X512572Y438658D01*
X510540Y439674D01*
X508508Y438658D01*
X164338Y145034D02*
X165354Y147066D01*
X164338Y149098D01*
X166370Y148082D01*
X168402Y149098D01*
X167386Y147066D01*
X168402Y145034D01*
X166370Y146050D01*
X164338Y145034D01*
X372618Y244348D02*
X373634Y246380D01*
X372618Y248412D01*
X374650Y247396D01*
X376682Y248412D01*
X375666Y246380D01*
X376682Y244348D01*
X374650Y245364D01*
X372618Y244348D01*
X404368Y356616D02*
X405384Y358648D01*
X404368Y360680D01*
X406400Y359664D01*
X408432Y360680D01*
X407416Y358648D01*
X408432Y356616D01*
X406400Y357632D01*
X404368Y356616D01*
X466872Y374041D02*
X467888Y376073D01*
X466872Y378105D01*
X468904Y377089D01*
X470936Y378105D01*
X469920Y376073D01*
X470936Y374041D01*
X468904Y375057D01*
X466872Y374041D01*
X512064Y183134D02*
X513080Y185166D01*
X512064Y187198D01*
X514096Y186182D01*
X516128Y187198D01*
X515112Y185166D01*
X516128Y183134D01*
X514096Y184150D01*
X512064Y183134D01*
X347726Y256286D02*
X348742Y258318D01*
X347726Y260350D01*
X349758Y259334D01*
X351790Y260350D01*
X350774Y258318D01*
X351790Y256286D01*
X349758Y257302D01*
X347726Y256286D01*
X588518Y560578D02*
X589534Y562610D01*
X588518Y564642D01*
X590550Y563626D01*
X592582Y564642D01*
X591566Y562610D01*
X592582Y560578D01*
X590550Y561594D01*
X588518Y560578D01*
X448544Y245872D02*
X449560Y247904D01*
X448544Y249936D01*
X450576Y248920D01*
X452608Y249936D01*
X451592Y247904D01*
X452608Y245872D01*
X450576Y246888D01*
X448544Y245872D01*
X785114Y655574D02*
Y654558D01*
X787146D01*
Y655574D01*
X788162D01*
Y657606D01*
X787146D01*
Y658622D01*
X785114D01*
Y657606D01*
X784098D01*
Y655574D01*
X785114D01*
X885444Y45974D02*
Y44958D01*
X887476D01*
Y45974D01*
X888492D01*
Y48006D01*
X887476D01*
Y49022D01*
X885444D01*
Y48006D01*
X884428D01*
Y45974D01*
X885444D01*
X-2286Y59944D02*
Y58928D01*
X-254D01*
Y59944D01*
X762D01*
Y61976D01*
X-254D01*
Y62992D01*
X-2286D01*
Y61976D01*
X-3302D01*
Y59944D01*
X-2286D01*
X124714Y655574D02*
Y654558D01*
X126746D01*
Y655574D01*
X127762D01*
Y657606D01*
X126746D01*
Y658622D01*
X124714D01*
Y657606D01*
X123698D01*
Y655574D01*
X124714D01*
D68*
X426792Y81280D02*
G03*
X426792Y81280I-2032J0D01*
G01*
X499292D02*
G03*
X499292Y81280I-2032J0D01*
G01*
M02*
