G04*
G04 #@! TF.GenerationSoftware,Altium Limited,Altium Designer,19.0.4 (130)*
G04*
G04 Layer_Color=8421504*
%FSLAX44Y44*%
%MOMM*%
G71*
G01*
G75*
%ADD19C,0.1000*%
%ADD20C,0.0127*%
%ADD21C,0.0500*%
%ADD22C,0.0254*%
G04:AMPARAMS|DCode=23|XSize=0.25mm|YSize=1.5mm|CornerRadius=0mm|HoleSize=0mm|Usage=FLASHONLY|Rotation=45.000|XOffset=0mm|YOffset=0mm|HoleType=Round|Shape=Round|*
%AMOVALD23*
21,1,1.2500,0.2500,0.0000,0.0000,135.0*
1,1,0.2500,0.4419,-0.4419*
1,1,0.2500,-0.4419,0.4419*
%
%ADD23OVALD23*%

G04:AMPARAMS|DCode=24|XSize=0.25mm|YSize=1.5mm|CornerRadius=0mm|HoleSize=0mm|Usage=FLASHONLY|Rotation=135.000|XOffset=0mm|YOffset=0mm|HoleType=Round|Shape=Round|*
%AMOVALD24*
21,1,1.2500,0.2500,0.0000,0.0000,225.0*
1,1,0.2500,0.4419,0.4419*
1,1,0.2500,-0.4419,-0.4419*
%
%ADD24OVALD24*%

%ADD25R,0.2500X0.3000*%
%ADD26R,2.1000X3.2000*%
%ADD27R,2.1000X0.9000*%
%ADD28R,2.0000X1.5000*%
%ADD29R,0.3500X1.6000*%
%ADD30R,0.3000X0.2500*%
%ADD31R,1.9000X1.3000*%
G04:AMPARAMS|DCode=32|XSize=1.524mm|YSize=1.27mm|CornerRadius=0mm|HoleSize=0mm|Usage=FLASHONLY|Rotation=270.000|XOffset=0mm|YOffset=0mm|HoleType=Round|Shape=Octagon|*
%AMOCTAGOND32*
4,1,8,-0.3175,-0.7620,0.3175,-0.7620,0.6350,-0.4445,0.6350,0.4445,0.3175,0.7620,-0.3175,0.7620,-0.6350,0.4445,-0.6350,-0.4445,-0.3175,-0.7620,0.0*
%
%ADD32OCTAGOND32*%

%ADD33R,1.2700X1.5240*%
D19*
X427970Y308610D02*
G03*
X427970Y308610I-5000J0D01*
G01*
X459740Y259112D02*
X509238Y308610D01*
X410243D02*
X459740Y358108D01*
X509238Y308610D01*
X410243D02*
X459740Y259112D01*
X564430Y73180D02*
X601430D01*
X564430Y140180D02*
X601430D01*
Y73180D02*
Y140180D01*
X564430Y73180D02*
Y140180D01*
X459740Y236768D02*
X531582Y308610D01*
X387898D02*
X459740Y380452D01*
X531582Y308610D01*
X387898D02*
X459740Y236768D01*
X582930Y101680D02*
Y111680D01*
X577930Y106680D02*
X587930D01*
X542930Y72180D02*
X622930D01*
X542930Y141180D02*
X622930D01*
Y72180D02*
Y141180D01*
X542930Y72180D02*
Y141180D01*
X461010Y76200D02*
Y86360D01*
X455930Y81280D02*
X466090D01*
D20*
X448678Y587462D02*
G03*
X448678Y587462I-762J0D01*
G01*
X446790Y574092D02*
G03*
X446790Y574092I-762J0D01*
G01*
X466296Y573946D02*
G03*
X466296Y573946I-762J0D01*
G01*
X464608Y587343D02*
G03*
X464608Y587343I-762J0D01*
G01*
X455883Y587712D02*
G03*
X464756Y589656I563J18652D01*
G01*
X468332Y573904D02*
G03*
X464756Y589656I-34222J512D01*
G01*
X466143Y571215D02*
G03*
X468332Y573904I-609J2731D01*
G01*
X461236Y573186D02*
G03*
X466143Y571215I3890J2593D01*
G01*
X447042Y589788D02*
G03*
X455883Y587712I8558J16582D01*
G01*
X447042Y589788D02*
G03*
X443230Y574092I30414J-15696D01*
G01*
D02*
G03*
X445378Y571371I2798J0D01*
G01*
D02*
G03*
X450314Y573267I1085J4547D01*
G01*
X455775D02*
X461236Y573186D01*
X450314Y573267D02*
X455775D01*
X454100Y625024D02*
G03*
X803395Y701537I22172J734335D01*
G01*
X944190Y81400D02*
G03*
X803395Y701537I-1347306J20160D01*
G01*
X858013Y-24466D02*
G03*
X944190Y81400I-23963J107514D01*
G01*
X664831Y53097D02*
G03*
X858013Y-24466I153145J102073D01*
G01*
X105988Y706755D02*
G03*
X454100Y625024I336929J652854D01*
G01*
X105988Y706755D02*
G03*
X-44070Y88794I1197399J-617961D01*
G01*
X-44070D02*
G03*
X40514Y-18350I110153J0D01*
G01*
Y-18350D02*
G03*
X234835Y56314I42720J179018D01*
G01*
X449845Y56314D02*
X664831Y53097D01*
X234835Y56314D02*
X449845D01*
D21*
X463240Y308610D02*
G03*
X463240Y308610I-3500J0D01*
G01*
X181300Y492760D02*
G03*
X181300Y492760I-3500J0D01*
G01*
X594050Y477520D02*
G03*
X594050Y477520I-3500J0D01*
G01*
X590240Y236220D02*
G03*
X590240Y236220I-3500J0D01*
G01*
X290520Y474980D02*
G03*
X290520Y474980I-3500J0D01*
G01*
X456204Y312146D02*
X463275Y305075D01*
X456205D02*
X463276Y312146D01*
X177800Y487760D02*
Y497760D01*
X172800Y492760D02*
X182800D01*
X585550Y477520D02*
X595550D01*
X590550Y472520D02*
Y482520D01*
X583205Y232685D02*
X590276Y239756D01*
X583205Y239755D02*
X590276Y232684D01*
X282020Y474980D02*
X292020D01*
X287020Y469980D02*
Y479980D01*
D22*
X574041Y327661D02*
G03*
X574041Y327661I-1270J0D01*
G01*
X571460Y345440D02*
G03*
X571460Y345440I-1270J0D01*
G01*
X401360Y194310D02*
G03*
X401360Y194310I-1270J0D01*
G01*
X518120Y346710D02*
G03*
X518120Y346710I-1270J0D01*
G01*
X482560Y205740D02*
G03*
X482560Y205740I-1270J0D01*
G01*
X542330Y327660D02*
G03*
X542330Y327660I-1270J0D01*
G01*
X543600Y345440D02*
G03*
X543600Y345440I-1270J0D01*
G01*
X455930Y133390D02*
G03*
X455930Y133390I-1270J0D01*
G01*
X464820Y133350D02*
G03*
X464820Y133350I-1270J0D01*
G01*
X504191Y207011D02*
G03*
X504191Y207011I-1270J0D01*
G01*
X401360Y208280D02*
G03*
X401360Y208280I-1270J0D01*
G01*
X462281Y205741D02*
G03*
X462281Y205741I-1270J0D01*
G01*
X474980Y133390D02*
G03*
X474980Y133390I-1270J0D01*
G01*
X519430Y250230D02*
G03*
X519430Y250230I-1270J0D01*
G01*
X593090Y413980D02*
G03*
X593090Y413980I-1270J0D01*
G01*
X401320Y250690D02*
G03*
X401320Y250690I-1270J0D01*
G01*
X318770Y520660D02*
G03*
X318770Y520660I-1270J0D01*
G01*
X572771Y325661D02*
Y329661D01*
X570770Y327661D02*
X574771D01*
X568190Y345440D02*
X572190D01*
X570190Y343440D02*
Y347440D01*
X400090Y192310D02*
Y196310D01*
X398090Y194310D02*
X402090D01*
X516850Y344710D02*
Y348710D01*
X514850Y346710D02*
X518850D01*
X481290Y203740D02*
Y207740D01*
X479290Y205740D02*
X483290D01*
X539060Y327660D02*
X543060D01*
X541060Y325660D02*
Y329660D01*
X540330Y345440D02*
X544330D01*
X542330Y343440D02*
Y347440D01*
X454660Y131390D02*
Y135390D01*
X452660Y133390D02*
X456660D01*
X463550Y131350D02*
Y135350D01*
X461550Y133350D02*
X465550D01*
X502921Y205011D02*
Y209011D01*
X500921Y207011D02*
X504921D01*
X400090Y206280D02*
Y210280D01*
X398090Y208280D02*
X402090D01*
X461011Y203741D02*
Y207741D01*
X459011Y205741D02*
X463011D01*
X473710Y131390D02*
Y135390D01*
X471710Y133390D02*
X475710D01*
X516160Y250230D02*
X520160D01*
X518160Y248230D02*
Y252230D01*
X591820Y411980D02*
Y415980D01*
X589820Y413980D02*
X593820D01*
X398050Y250691D02*
X402050D01*
X400050Y248691D02*
Y252691D01*
X317500Y518660D02*
Y522660D01*
X315500Y520660D02*
X319500D01*
D23*
X411685Y317774D02*
D03*
X415220Y321310D02*
D03*
X418756Y324845D02*
D03*
X422292Y328381D02*
D03*
X425827Y331917D02*
D03*
X429363Y335452D02*
D03*
X432898Y338987D02*
D03*
X436433Y342523D02*
D03*
X439969Y346058D02*
D03*
X443505Y349594D02*
D03*
X447040Y353130D02*
D03*
X450576Y356665D02*
D03*
X507795Y299446D02*
D03*
X504260Y295910D02*
D03*
X500724Y292375D02*
D03*
X497188Y288839D02*
D03*
X493653Y285304D02*
D03*
X490117Y281768D02*
D03*
X486582Y278233D02*
D03*
X483046Y274697D02*
D03*
X479511Y271162D02*
D03*
X475975Y267626D02*
D03*
X472440Y264090D02*
D03*
X468904Y260555D02*
D03*
D24*
Y356665D02*
D03*
X472440Y353130D02*
D03*
X475975Y349594D02*
D03*
X479511Y346058D02*
D03*
X483046Y342523D02*
D03*
X486582Y338987D02*
D03*
X490117Y335452D02*
D03*
X493653Y331917D02*
D03*
X497188Y328381D02*
D03*
X500724Y324845D02*
D03*
X504260Y321310D02*
D03*
X507795Y317774D02*
D03*
X450576Y260555D02*
D03*
X447040Y264090D02*
D03*
X443505Y267626D02*
D03*
X439969Y271162D02*
D03*
X436433Y274697D02*
D03*
X432898Y278233D02*
D03*
X429363Y281768D02*
D03*
X425827Y285304D02*
D03*
X422292Y288839D02*
D03*
X418756Y292375D02*
D03*
X415220Y295910D02*
D03*
X411685Y299446D02*
D03*
D25*
X570271Y327661D02*
D03*
X575271D02*
D03*
X567690Y345440D02*
D03*
X572690D02*
D03*
X397590Y194310D02*
D03*
X402590D02*
D03*
X514350Y346710D02*
D03*
X519350D02*
D03*
X478790Y205740D02*
D03*
X483790D02*
D03*
X543560Y327660D02*
D03*
X538560D02*
D03*
X539830Y345440D02*
D03*
X544830D02*
D03*
X500421Y207011D02*
D03*
X505421D02*
D03*
X402590Y208280D02*
D03*
X397590D02*
D03*
X458511Y205741D02*
D03*
X463511D02*
D03*
D26*
X611430Y106680D02*
D03*
D27*
X554430Y83680D02*
D03*
Y106680D02*
D03*
Y129680D02*
D03*
D28*
X217170Y492760D02*
D03*
X137842Y492560D02*
D03*
D29*
X467510Y110280D02*
D03*
X474010D02*
D03*
X448010D02*
D03*
X461010D02*
D03*
X454510D02*
D03*
D30*
X454660Y130890D02*
D03*
Y135890D02*
D03*
X463550Y130850D02*
D03*
Y135850D02*
D03*
X473710Y130890D02*
D03*
Y135890D02*
D03*
X518160Y252730D02*
D03*
Y247730D02*
D03*
X591820Y411480D02*
D03*
Y416480D02*
D03*
X400050Y253191D02*
D03*
Y248191D02*
D03*
X317500Y518160D02*
D03*
Y523160D02*
D03*
D31*
X337310Y244670D02*
D03*
Y189670D02*
D03*
X305310D02*
D03*
Y244670D02*
D03*
D32*
X590550Y464820D02*
D03*
X287020Y487680D02*
D03*
D33*
X590550Y490220D02*
D03*
X287020Y462280D02*
D03*
M02*
